<svg width="28" height="51" viewBox="0 0 28 51" fill="none" xmlns="http://www.w3.org/2000/svg">
<path fill-rule="evenodd" clip-rule="evenodd" d="M0 4.53025L27.5799 0.399902L26.1094 50.8209H1.83827L0 4.53025ZM19.1924 26.8874H22.4313V25.9636C22.4316 25.8337 22.4869 25.7092 22.5851 25.6174C22.6832 25.5256 22.8163 25.4739 22.9551 25.4737H23.998C24.1367 25.474 24.2697 25.5257 24.3678 25.6175C24.4659 25.7094 24.5211 25.8338 24.5214 25.9636V31.1266C24.5211 31.2564 24.4659 31.3809 24.3678 31.4727C24.2697 31.5645 24.1367 31.6162 23.998 31.6165H22.9551C22.8163 31.6163 22.6832 31.5646 22.5851 31.4728C22.4869 31.381 22.4316 31.2565 22.4313 31.1266V27.9486H19.1924C19.1172 27.9484 19.0451 27.9203 18.9919 27.8705C18.9387 27.8207 18.9087 27.7532 18.9085 27.6828V27.1535C18.9087 27.083 18.9386 27.0155 18.9918 26.9657C19.045 26.9158 19.1171 26.8877 19.1924 26.8874ZM15.5494 14.9324C15.5494 15.1053 15.4947 15.2744 15.392 15.4181C15.2894 15.5619 15.1435 15.674 14.9728 15.7401C14.8021 15.8063 14.6143 15.8236 14.4331 15.7898C14.2519 15.756 14.0855 15.6727 13.9549 15.5504C13.8242 15.4281 13.7353 15.2723 13.6993 15.1027C13.6633 14.9331 13.6819 14.7573 13.7526 14.5976C13.8234 14.4379 13.9432 14.3013 14.0968 14.2053C14.2504 14.1093 14.4311 14.0581 14.6158 14.0582C14.8635 14.0583 15.1009 14.1504 15.276 14.3144C15.4511 14.4783 15.5494 14.7006 15.5494 14.9324Z" fill="#E50046"/>
</svg>
