<svg width="217" height="252" viewBox="0 0 217 252" fill="none" xmlns="http://www.w3.org/2000/svg">
<path d="M48.1506 102.635C47.5653 102.61 46.3006 102.812 45.9646 102.213C45.5108 101.404 46.453 101.132 47.056 100.954C48.2418 100.603 50.1875 100.872 51.1682 100.183C43.0809 95.0376 37.1698 87.424 34.326 78.1614C31.4975 68.9486 31.2947 57.8006 36.6724 49.4678C39.3045 45.3893 43.0186 42.068 47.8253 40.9611C48.2378 40.8661 50.2548 40.3006 50.1414 41.169C50.0822 41.6217 47.4853 42.3223 47.0413 42.5208C44.7329 43.5525 42.734 44.9339 40.9797 46.7641C35.0024 53.0002 33.4905 62.5763 34.7067 70.8871C35.5123 76.3924 37.5517 81.841 40.493 86.574C42.0111 89.017 43.7916 91.365 45.8546 93.3676C47.5946 95.0566 50.3926 97.9029 52.8072 98.4965C52.5658 96.3165 50.2176 94.291 49.6597 92.1498C49.364 91.0154 49.9517 89.7558 51.1743 90.5875C52.1656 91.2617 52.7322 93.3243 53.2384 94.3787C53.8033 95.5552 54.3275 96.7434 54.7816 97.9678C55.1148 98.8659 56.1975 100.653 55.7911 101.576C55.0724 103.209 49.6529 102.65 48.1506 102.635C48.7774 102.642 47.5387 102.609 48.1506 102.635Z" fill="#39393B"/>
<path d="M48.1506 102.635C47.5653 102.61 46.3006 102.812 45.9646 102.213C45.5108 101.404 46.453 101.132 47.056 100.954C48.2418 100.603 50.1875 100.872 51.1682 100.183C43.0809 95.0376 37.1698 87.424 34.326 78.1614C31.4975 68.9486 31.2947 57.8006 36.6724 49.4678C39.3045 45.3893 43.0186 42.068 47.8253 40.9611C48.2378 40.8661 50.2548 40.3006 50.1414 41.169C50.0822 41.6217 47.4853 42.3223 47.0413 42.5208C44.7329 43.5525 42.734 44.9339 40.9797 46.7641C35.0024 53.0002 33.4905 62.5763 34.7067 70.8871C35.5123 76.3924 37.5517 81.841 40.493 86.574C42.0111 89.017 43.7916 91.365 45.8546 93.3676C47.5946 95.0566 50.3926 97.9029 52.8072 98.4965C52.5658 96.3165 50.2176 94.291 49.6597 92.1498C49.364 91.0154 49.9517 89.7558 51.1743 90.5875C52.1656 91.2617 52.7322 93.3243 53.2384 94.3787C53.8033 95.5552 54.3275 96.7434 54.7816 97.9678C55.1148 98.8659 56.1975 100.653 55.7911 101.576C55.0724 103.209 49.6529 102.65 48.1506 102.635C48.7774 102.642 47.5387 102.609 48.1506 102.635Z" fill="url(#paint0_radial_1838_1045)"/>
<rect x="37" y="117" width="60" height="58" rx="16" fill="#E50046" stroke="white" stroke-width="6"/>
<path d="M82.9175 154.567L84.3622 145.554H75.4629V139.695C75.4629 137.23 76.7053 134.821 80.6782 134.821H84.7811V127.146C82.3918 126.771 79.9775 126.569 77.5577 126.54C70.2331 126.54 65.4512 130.864 65.4512 138.68V145.554H57.332V154.567H65.4512V176.369H75.4629V154.567H82.9175Z" fill="white"/>
<defs>
<radialGradient id="paint0_radial_1838_1045" cx="0" cy="0" r="1" gradientUnits="userSpaceOnUse" gradientTransform="translate(51.7293 99.5538) rotate(-98.957) scale(52.7982 107.638)">
<stop stop-color="white"/>
<stop offset="1" stop-color="#3E3D3F"/>
</radialGradient>
</defs>
</svg>
