<svg width="122" height="122" viewBox="0 0 122 122" fill="none" xmlns="http://www.w3.org/2000/svg">
<rect x="33.3271" y="32.3604" width="55.0619" height="57.9599" rx="7" fill="url(#paint0_linear_1838_1051)"/>
<path d="M49.5797 60.8573C49.5797 54.7394 54.5211 49.7786 60.6183 49.7786C66.7155 49.7786 71.6596 54.7394 71.6596 60.8573C71.6596 66.9751 66.7155 71.9359 60.6183 71.9359C54.5211 71.9359 49.5797 66.9751 49.5797 60.8573ZM43.6109 60.8573C43.6109 70.2822 51.2251 77.9221 60.6183 77.9221C70.0115 77.9221 77.6256 70.2822 77.6256 60.8573C77.6256 51.4323 70.0115 43.7924 60.6183 43.7924C51.2251 43.7924 43.6109 51.4323 43.6109 60.8573ZM74.3244 43.1158C74.3241 43.9045 74.5569 44.6756 74.9933 45.3316C75.4298 45.9876 76.0503 46.499 76.7765 46.8012C77.5026 47.1033 78.3017 47.1826 79.0728 47.029C79.8438 46.8755 80.5522 46.4959 81.1082 45.9384C81.6643 45.3809 82.0431 44.6705 82.1968 43.8969C82.3505 43.1234 82.2721 42.3215 81.9715 41.5927C81.671 40.8639 81.1618 40.2408 80.5084 39.8024C79.855 39.3639 79.0866 39.1297 78.3005 39.1294H78.2989C77.2452 39.1299 76.2348 39.55 75.4896 40.2974C74.7444 41.0448 74.3253 42.0585 74.3244 43.1158ZM47.2373 87.9083C44.0081 87.7608 42.253 87.2211 41.0866 86.7651C39.5402 86.1611 38.4369 85.4416 37.2768 84.2793C36.1168 83.1169 35.3987 82.0109 34.7994 80.4593C34.3447 79.2895 33.8068 77.5279 33.66 74.2878C33.4994 70.7847 33.4674 69.7324 33.4674 60.8575C33.4674 51.9827 33.5021 50.9333 33.66 47.4273C33.8071 44.1872 34.3489 42.429 34.7994 41.2558C35.4014 39.7042 36.1184 38.5971 37.2768 37.4331C38.4353 36.2692 39.5376 35.5487 41.0866 34.9473C42.2524 34.4911 44.0081 33.9514 47.2373 33.8041C50.7286 33.643 51.7773 33.6108 60.6183 33.6108C69.4593 33.6108 70.5091 33.6456 74.0032 33.8041C77.2324 33.9516 78.9847 34.4953 80.154 34.9473C81.7004 35.5487 82.8037 36.2708 83.9637 37.4331C85.1238 38.5955 85.8392 39.7042 86.4412 41.2558C86.8959 42.4256 87.4338 44.1872 87.5806 47.4273C87.7411 50.9333 87.7732 51.9827 87.7732 60.8575C87.7732 69.7324 87.7411 70.7818 87.5806 74.2878C87.4335 77.5279 86.893 79.289 86.4412 80.4593C85.8392 82.0109 85.1222 83.118 83.9637 84.2793C82.8053 85.4406 81.7004 86.1611 80.154 86.7651C78.9881 87.2213 77.2324 87.761 74.0032 87.9083C70.512 88.0694 69.4632 88.1016 60.6183 88.1016C51.7733 88.1016 50.7275 88.0694 47.2373 87.9083ZM46.9631 27.8253C43.4371 27.9864 41.0278 28.5474 38.9236 29.3689C36.7445 30.2173 34.8998 31.3555 33.0564 33.2022C31.213 35.0489 30.0816 36.9027 29.2361 39.0892C28.4173 41.2018 27.8582 43.618 27.6977 47.1559C27.5344 50.6993 27.4971 51.8322 27.4971 60.8573C27.4971 69.8824 27.5344 71.0152 27.6977 74.5587C27.8582 78.0968 28.4173 80.5127 29.2361 82.6253C30.0816 84.8105 31.2133 86.6665 33.0564 88.5124C34.8995 90.3583 36.7445 91.4949 38.9236 92.3456C41.0317 93.1672 43.4371 93.7281 46.9631 93.8892C50.4964 94.0504 51.6236 94.0905 60.6183 94.0905C69.613 94.0905 70.742 94.053 74.2735 93.8892C77.7997 93.7281 80.2075 93.1672 82.313 92.3456C84.4907 91.4949 86.3368 90.3591 88.1802 88.5124C90.0236 86.6657 91.1526 84.8105 92.0005 82.6253C92.8193 80.5127 93.381 78.0965 93.5389 74.5587C93.6995 71.0125 93.7369 69.8824 93.7369 60.8573C93.7369 51.8322 93.6995 50.6993 93.5389 47.1559C93.3784 43.6177 92.8193 41.2005 92.0005 39.0892C91.1526 36.9041 90.0207 35.0518 88.1802 33.2022C86.3397 31.3525 84.4907 30.2173 82.3156 29.3689C80.2075 28.5474 77.7995 27.9837 74.2762 27.8253C70.7446 27.6642 69.6156 27.624 60.6209 27.624C51.6263 27.624 50.4964 27.6615 46.9631 27.8253Z" fill="white"/>
<path d="M49.5797 60.8573C49.5797 54.7394 54.5211 49.7786 60.6183 49.7786C66.7155 49.7786 71.6596 54.7394 71.6596 60.8573C71.6596 66.9751 66.7155 71.9359 60.6183 71.9359C54.5211 71.9359 49.5797 66.9751 49.5797 60.8573ZM43.6109 60.8573C43.6109 70.2822 51.2251 77.9221 60.6183 77.9221C70.0115 77.9221 77.6256 70.2822 77.6256 60.8573C77.6256 51.4323 70.0115 43.7924 60.6183 43.7924C51.2251 43.7924 43.6109 51.4323 43.6109 60.8573ZM74.3244 43.1158C74.3241 43.9045 74.5569 44.6756 74.9933 45.3316C75.4298 45.9876 76.0503 46.499 76.7765 46.8012C77.5026 47.1033 78.3017 47.1826 79.0728 47.029C79.8438 46.8755 80.5522 46.4959 81.1082 45.9384C81.6643 45.3809 82.0431 44.6705 82.1968 43.8969C82.3505 43.1234 82.2721 42.3215 81.9715 41.5927C81.671 40.8639 81.1618 40.2408 80.5084 39.8024C79.855 39.3639 79.0866 39.1297 78.3005 39.1294H78.2989C77.2452 39.1299 76.2348 39.55 75.4896 40.2974C74.7444 41.0448 74.3253 42.0585 74.3244 43.1158ZM47.2373 87.9083C44.0081 87.7608 42.253 87.2211 41.0866 86.7651C39.5402 86.1611 38.4369 85.4416 37.2768 84.2793C36.1168 83.1169 35.3987 82.0109 34.7994 80.4593C34.3447 79.2895 33.8068 77.5279 33.66 74.2878C33.4994 70.7847 33.4674 69.7324 33.4674 60.8575C33.4674 51.9827 33.5021 50.9333 33.66 47.4273C33.8071 44.1872 34.3489 42.429 34.7994 41.2558C35.4014 39.7042 36.1184 38.5971 37.2768 37.4331C38.4353 36.2692 39.5376 35.5487 41.0866 34.9473C42.2524 34.4911 44.0081 33.9514 47.2373 33.8041C50.7286 33.643 51.7773 33.6108 60.6183 33.6108C69.4593 33.6108 70.5091 33.6456 74.0032 33.8041C77.2324 33.9516 78.9847 34.4953 80.154 34.9473C81.7004 35.5487 82.8037 36.2708 83.9637 37.4331C85.1238 38.5955 85.8392 39.7042 86.4412 41.2558C86.8959 42.4256 87.4338 44.1872 87.5806 47.4273C87.7411 50.9333 87.7732 51.9827 87.7732 60.8575C87.7732 69.7324 87.7411 70.7818 87.5806 74.2878C87.4335 77.5279 86.893 79.289 86.4412 80.4593C85.8392 82.0109 85.1222 83.118 83.9637 84.2793C82.8053 85.4406 81.7004 86.1611 80.154 86.7651C78.9881 87.2213 77.2324 87.761 74.0032 87.9083C70.512 88.0694 69.4632 88.1016 60.6183 88.1016C51.7733 88.1016 50.7275 88.0694 47.2373 87.9083ZM46.9631 27.8253C43.4371 27.9864 41.0278 28.5474 38.9236 29.3689C36.7445 30.2173 34.8998 31.3555 33.0564 33.2022C31.213 35.0489 30.0816 36.9027 29.2361 39.0892C28.4173 41.2018 27.8582 43.618 27.6977 47.1559C27.5344 50.6993 27.4971 51.8322 27.4971 60.8573C27.4971 69.8824 27.5344 71.0152 27.6977 74.5587C27.8582 78.0968 28.4173 80.5127 29.2361 82.6253C30.0816 84.8105 31.2133 86.6665 33.0564 88.5124C34.8995 90.3583 36.7445 91.4949 38.9236 92.3456C41.0317 93.1672 43.4371 93.7281 46.9631 93.8892C50.4964 94.0504 51.6236 94.0905 60.6183 94.0905C69.613 94.0905 70.742 94.053 74.2735 93.8892C77.7997 93.7281 80.2075 93.1672 82.313 92.3456C84.4907 91.4949 86.3368 90.3591 88.1802 88.5124C90.0236 86.6657 91.1526 84.8105 92.0005 82.6253C92.8193 80.5127 93.381 78.0965 93.5389 74.5587C93.6995 71.0125 93.7369 69.8824 93.7369 60.8573C93.7369 51.8322 93.6995 50.6993 93.5389 47.1559C93.3784 43.6177 92.8193 41.2005 92.0005 39.0892C91.1526 36.9041 90.0207 35.0518 88.1802 33.2022C86.3397 31.3525 84.4907 30.2173 82.3156 29.3689C80.2075 28.5474 77.7995 27.9837 74.2762 27.8253C70.7446 27.6642 69.6156 27.624 60.6209 27.624C51.6263 27.624 50.4964 27.6615 46.9631 27.8253Z" fill="white"/>
<defs>
<linearGradient id="paint0_linear_1838_1051" x1="33.3271" y1="61.3403" x2="88.3891" y2="61.3403" gradientUnits="userSpaceOnUse">
<stop stop-color="#E50046"/>
</linearGradient>
</defs>
</svg>
