<svg width="22" height="22" viewBox="0 0 22 22" fill="none" xmlns="http://www.w3.org/2000/svg">
<path d="M7.35827 11C7.35827 8.98942 8.98866 7.35913 11.0004 7.35913C13.0121 7.35913 14.6434 8.98942 14.6434 11C14.6434 13.0105 13.0121 14.6408 11.0004 14.6408C8.98866 14.6408 7.35827 13.0105 7.35827 11ZM5.38894 11C5.38894 14.0973 7.90118 16.6081 11.0004 16.6081C14.0996 16.6081 16.6119 14.0973 16.6119 11C16.6119 7.90259 14.0996 5.39185 11.0004 5.39185C7.90118 5.39185 5.38894 7.90259 5.38894 11ZM15.5226 5.16949C15.5225 5.4287 15.5993 5.68212 15.7434 5.8977C15.8874 6.11328 16.0921 6.28135 16.3317 6.38064C16.5713 6.47993 16.8349 6.50599 17.0893 6.45552C17.3437 6.40505 17.5775 6.28032 17.7609 6.09711C17.9444 5.91389 18.0694 5.68042 18.1201 5.42621C18.1708 5.172 18.1449 4.90847 18.0458 4.66895C17.9466 4.42944 17.7786 4.22468 17.563 4.08059C17.3474 3.93649 17.0939 3.85953 16.8345 3.85942H16.834C16.4864 3.85958 16.153 3.99764 15.9071 4.24328C15.6612 4.48891 15.5229 4.82204 15.5226 5.16949ZM6.58544 19.8899C5.51999 19.8414 4.94088 19.664 4.55604 19.5142C4.04582 19.3156 3.68179 19.0792 3.29904 18.6972C2.91629 18.3152 2.67937 17.9518 2.48161 17.4419C2.33159 17.0574 2.15412 16.4785 2.10569 15.4137C2.05271 14.2624 2.04213 13.9166 2.04213 11C2.04213 8.08345 2.05358 7.73859 2.10569 6.58641C2.15421 5.5216 2.33299 4.9438 2.48161 4.55823C2.68024 4.04832 2.91682 3.6845 3.29904 3.30198C3.68126 2.91947 4.04495 2.68269 4.55604 2.48505C4.94071 2.33512 5.51999 2.15775 6.58544 2.10935C7.73735 2.0564 8.08338 2.04583 11.0004 2.04583C13.9174 2.04583 14.2638 2.05727 15.4167 2.10935C16.4821 2.15784 17.0603 2.33652 17.4461 2.48505C17.9563 2.68269 18.3203 2.91999 18.7031 3.30198C19.0858 3.68398 19.3219 4.04832 19.5205 4.55823C19.6705 4.94267 19.848 5.5216 19.8964 6.58641C19.9494 7.73859 19.96 8.08345 19.96 11C19.96 13.9166 19.9494 14.2615 19.8964 15.4137C19.8479 16.4785 19.6696 17.0572 19.5205 17.4419C19.3219 17.9518 19.0853 18.3156 18.7031 18.6972C18.3209 19.0789 17.9563 19.3156 17.4461 19.5142C17.0614 19.6641 16.4821 19.8415 15.4167 19.8899C14.2648 19.9428 13.9187 19.9534 11.0004 19.9534C8.08207 19.9534 7.737 19.9428 6.58544 19.8899ZM6.49495 0.14451C5.33158 0.197458 4.53663 0.381814 3.84239 0.651796C3.1234 0.930602 2.51475 1.30464 1.90653 1.91154C1.29832 2.51843 0.92501 3.12768 0.646037 3.84623C0.375893 4.54049 0.191426 5.33453 0.138446 6.4972C0.0845926 7.66171 0.0722656 8.034 0.0722656 11C0.0722656 13.9659 0.0845926 14.3382 0.138446 15.5027C0.191426 16.6655 0.375893 17.4594 0.646037 18.1537C0.92501 18.8718 1.2984 19.4817 1.90653 20.0884C2.51466 20.695 3.1234 21.0685 3.84239 21.3481C4.53794 21.6181 5.33158 21.8024 6.49495 21.8554C7.66076 21.9083 8.03267 21.9215 11.0004 21.9215C13.9681 21.9215 14.3407 21.9092 15.5059 21.8554C16.6693 21.8024 17.4637 21.6181 18.1584 21.3481C18.877 21.0685 19.4861 20.6953 20.0943 20.0884C20.7025 19.4815 21.075 18.8718 21.3548 18.1537C21.6249 17.4594 21.8103 16.6654 21.8624 15.5027C21.9153 14.3373 21.9277 13.9659 21.9277 11C21.9277 8.034 21.9153 7.66171 21.8624 6.4972C21.8094 5.33445 21.6249 4.54005 21.3548 3.84623C21.075 3.12811 20.7015 2.51939 20.0943 1.91154C19.487 1.30368 18.877 0.930602 18.1593 0.651796C17.4637 0.381814 16.6692 0.196584 15.5067 0.14451C14.3415 0.0915624 13.969 0.0783691 11.0013 0.0783691C8.03355 0.0783691 7.66076 0.0906887 6.49495 0.14451Z" fill="white"/>
</svg>
