<svg width="26" height="26" viewBox="0 0 26 26" fill="none" xmlns="http://www.w3.org/2000/svg">
<path d="M19.1281 18.045L14.5315 22.6416C14.3305 22.8428 14.0918 23.0024 13.829 23.1114C13.5663 23.2203 13.2846 23.2763 13.0002 23.2763C12.7158 23.2763 12.4342 23.2203 12.1714 23.1114C11.9087 23.0024 11.6699 22.8428 11.4689 22.6416L6.87126 18.045C5.65925 16.8329 4.83388 15.2887 4.49951 13.6075C4.16514 11.9264 4.33679 10.1838 4.99277 8.60022C5.64874 7.01662 6.75957 5.6631 8.18478 4.71081C9.61 3.75852 11.2856 3.25024 12.9997 3.25024C14.7138 3.25024 16.3894 3.75852 17.8146 4.71081C19.2398 5.6631 20.3506 7.01662 21.0066 8.60022C21.6626 10.1838 21.8342 11.9264 21.4999 13.6075C21.1655 15.2887 20.3401 16.8329 19.1281 18.045V18.045Z" stroke="white" stroke-width="2" stroke-linecap="round" stroke-linejoin="round"/>
<path d="M15.2981 14.2148C15.9076 13.6054 16.25 12.7787 16.25 11.9167C16.25 11.0548 15.9076 10.2281 15.2981 9.61865C14.6886 9.00916 13.862 8.66675 13 8.66675C12.138 8.66675 11.3114 9.00916 10.7019 9.61865C10.0924 10.2281 9.75 11.0548 9.75 11.9167C9.75 12.7787 10.0924 13.6054 10.7019 14.2148C11.3114 14.8243 12.138 15.1667 13 15.1667C13.862 15.1667 14.6886 14.8243 15.2981 14.2148Z" stroke="white" stroke-width="2" stroke-linecap="round" stroke-linejoin="round"/>
</svg>
