<svg width="114" height="33" viewBox="0 0 114 33" fill="none" xmlns="http://www.w3.org/2000/svg">
<path fill-rule="evenodd" clip-rule="evenodd" d="M10.8328 13.5291C10.5762 13.6782 10.3044 13.8037 10.0214 13.9037C9.74712 13.9997 9.37127 14.0882 8.89381 14.1691L7.94007 14.3326C7.04659 14.4781 6.40544 14.6556 6.01663 14.8652C5.35669 15.2191 5.02672 15.7683 5.02672 16.5128C5.02672 17.1754 5.22864 17.6542 5.63249 17.9493C6.03633 18.2444 6.52635 18.392 7.10257 18.3922C8.01808 18.3922 8.86153 18.147 9.63293 17.6565C10.4043 17.166 10.8048 16.272 10.8344 14.9743L10.8328 13.5291ZM8.27056 11.7181C9.05051 11.6276 9.6078 11.5141 9.94244 11.3778C10.5456 11.142 10.8468 10.7745 10.846 10.2751C10.846 9.66647 10.6152 9.24633 10.1535 9.01465C9.6919 8.78297 9.01369 8.66713 8.11891 8.66713C7.11578 8.66713 6.40544 8.89413 5.98785 9.34812C5.68951 9.68424 5.49069 10.1381 5.39142 10.7098H1.35092C1.44009 9.41139 1.83407 8.3447 2.53289 7.5097C3.64489 6.20293 5.55459 5.54931 8.262 5.54883C10.0246 5.54883 11.5898 5.87125 12.9576 6.51611C14.3255 7.16097 15.0094 8.37723 15.0094 10.1649V16.9741C15.0094 17.4456 15.0194 18.0174 15.0393 18.6893C15.0686 19.1978 15.1518 19.5428 15.2889 19.7243C15.4258 19.9044 15.6323 20.056 15.9064 20.1738V20.7457H11.3472C11.2284 20.4733 11.1399 20.1905 11.0832 19.9015C11.0334 19.6374 10.9945 19.3373 10.9666 19.0012C10.38 19.586 9.7023 20.0864 8.95603 20.4856C8.0488 20.9658 7.02338 21.2059 5.87976 21.2059C4.42095 21.2059 3.21565 20.8218 2.26384 20.0535C1.31204 19.2852 0.836396 18.1983 0.836914 16.7926C0.836914 14.968 1.60222 13.6475 3.13283 12.8312C3.97266 12.3866 5.20674 12.0689 6.83507 11.878L8.27365 11.7145L8.27056 11.7181Z" fill="white"/>
<path fill-rule="evenodd" clip-rule="evenodd" d="M28.7088 10.3105C28.1459 9.42094 27.2342 8.97617 25.9736 8.97617C24.459 8.97617 23.4183 9.65031 22.8516 10.9986C22.5581 11.714 22.4113 12.6221 22.411 13.7229C22.411 14.3214 22.4694 14.8592 22.586 15.3363C22.8086 16.2463 23.2436 16.9329 23.8909 17.3962C24.477 17.8086 25.1709 18.0148 25.9725 18.0148C27.1361 18.0148 28.0235 17.5929 28.6347 16.7489C29.246 15.905 29.5513 14.7813 29.5508 13.378C29.5508 12.2223 29.27 11.1996 28.7084 10.3098L28.7088 10.3105ZM31.8826 7.4901C33.1724 8.78331 33.8174 10.682 33.8176 13.1862C33.8176 15.8279 33.1872 17.8414 31.9264 19.2265C30.6655 20.6117 29.0418 21.3038 27.0551 21.3028C25.7894 21.3028 24.7379 21.0048 23.9005 20.4088C23.4422 20.0784 22.9945 19.5967 22.5572 18.9638V26.7788H18.4639V5.88031H22.4256V8.09413C22.8738 7.44304 23.3511 6.92936 23.8575 6.55312C24.7821 5.88359 25.8823 5.54883 27.158 5.54883C29.0172 5.54956 30.5921 6.19664 31.8826 7.4901Z" fill="white"/>
<path d="M41.2112 0.772217H36.9463V20.6753H41.2112V0.772217Z" fill="white"/>
<path fill-rule="evenodd" clip-rule="evenodd" d="M55.2186 16.7883C55.868 15.9898 56.1931 14.8551 56.1938 13.3841C56.1946 11.9131 55.8695 10.7808 55.2186 9.9871C54.569 9.1934 53.6379 8.79632 52.4253 8.79584C51.2127 8.79537 50.2792 9.19245 49.6247 9.9871C48.9702 10.7808 48.6429 11.9131 48.6429 13.3841C48.6429 14.8551 48.9702 15.9898 49.6247 16.7883C50.2794 17.5865 51.213 17.9856 52.4253 17.9856C53.6376 17.9856 54.5687 17.5865 55.2186 16.7883ZM58.5363 18.9107C57.1975 20.4408 55.1654 21.2059 52.4399 21.2059C49.7144 21.2059 47.6827 20.4408 46.3447 18.9107C45.0064 17.381 44.3372 15.5388 44.3369 13.3841C44.3369 11.2297 45.0063 9.4312 46.3447 7.8779C47.6831 6.32459 49.7147 5.54883 52.4399 5.54883C55.1652 5.54883 57.1975 6.32495 58.5363 7.8779C59.8751 9.43085 60.5437 11.266 60.5437 13.3841C60.5437 15.5022 59.8743 17.3809 58.5363 18.9107Z" fill="white"/>
<path fill-rule="evenodd" clip-rule="evenodd" d="M61.9678 8.75524V5.98349H64.1608V1.83398H68.2291V5.98385H70.782V8.75561H68.2291V16.6188C68.2291 17.2288 68.3107 17.6088 68.4737 17.759C68.6367 17.9092 69.1372 17.9843 69.975 17.9843C70.099 17.9843 70.2322 17.9821 70.3714 17.9775C70.5107 17.9728 70.6469 17.9659 70.782 17.9569V20.8647L68.8362 20.933C66.8934 20.9965 65.566 20.678 64.8541 19.9773C64.3924 19.5313 64.1617 18.8442 64.162 17.9161V8.75524H61.9693H61.9678Z" fill="white"/>
<path d="M77.8901 16.6948H73.3408V20.6771H77.8901V16.6948Z" fill="white"/>
<path fill-rule="evenodd" clip-rule="evenodd" d="M85.9 5.81421V14.892C85.9 15.7485 86.0078 16.3934 86.2234 16.8265C86.605 17.5909 87.3541 17.9731 88.4706 17.9731C89.9006 17.9731 90.8801 17.4298 91.4091 16.3431C91.6837 15.7533 91.8212 14.975 91.8214 14.0081V5.81421H96.0887V20.8748H91.9987V18.7471C91.9589 18.7931 91.8605 18.9312 91.7035 19.1614C91.5495 19.3883 91.3611 19.5931 91.1443 19.7695C90.4862 20.322 89.8504 20.6996 89.2368 20.9022C88.6232 21.1049 87.9044 21.2061 87.0805 21.2059C84.7045 21.2059 83.1043 20.4046 82.2798 18.8019C81.8185 17.9176 81.5879 16.6143 81.5879 14.892V5.81421H85.9Z" fill="white"/>
<path fill-rule="evenodd" clip-rule="evenodd" d="M108.928 13.5291C108.672 13.6783 108.4 13.8037 108.117 13.9037C107.843 13.9997 107.467 14.0882 106.989 14.1691L106.036 14.3326C105.142 14.4781 104.5 14.6551 104.11 14.8638C103.45 15.2176 103.12 15.7668 103.12 16.5113C103.12 17.174 103.322 17.6528 103.725 17.9479C104.128 18.2429 104.618 18.3906 105.195 18.3908C106.111 18.3908 106.955 18.1456 107.726 17.6551C108.497 17.1646 108.898 16.2706 108.928 14.9732V13.5291ZM106.367 11.7181C107.146 11.6276 107.704 11.5141 108.039 11.3778C108.642 11.142 108.943 10.7745 108.943 10.2751C108.943 9.66647 108.712 9.24633 108.25 9.01465C107.788 8.78297 107.11 8.66713 106.216 8.66713C105.212 8.66713 104.501 8.89413 104.084 9.34812C103.785 9.68424 103.587 10.1381 103.488 10.7098H99.4447C99.5331 9.41139 99.9268 8.3447 100.626 7.5097C101.739 6.20293 103.648 5.54931 106.355 5.54883C108.117 5.54883 109.683 5.87125 111.05 6.51611C112.418 7.16097 113.102 8.37723 113.103 10.1649V16.9741C113.103 17.4456 113.113 18.0174 113.133 18.6893C113.162 19.1978 113.245 19.5428 113.382 19.7243C113.519 19.9058 113.725 20.0557 114 20.1738V20.7457H109.441C109.323 20.4733 109.234 20.1905 109.177 19.9015C109.127 19.6379 109.089 19.3387 109.061 19.0012C108.474 19.5862 107.796 20.0866 107.05 20.4856C106.142 20.9658 105.117 21.2059 103.973 21.2059C102.515 21.2059 101.309 20.8218 100.358 20.0535C99.4058 19.2852 98.9301 18.1983 98.9307 16.7926C98.9307 14.968 99.6953 13.6475 101.225 12.8312C102.064 12.3866 103.299 12.0689 104.928 11.878L106.366 11.7145L106.367 11.7181Z" fill="white"/>
<path fill-rule="evenodd" clip-rule="evenodd" d="M26.4098 28.5268C26.4098 29.0679 26.34 29.5846 26.1921 30.0343C26.1097 30.2948 25.9986 30.5461 25.8606 30.7841H27.8022V27.8702H26.4098V28.5286V28.5268ZM28.5502 27.3096V30.7911L28.9856 30.7992L28.9417 32.6158H28.3413L28.3058 31.3407H25.3909L25.3469 32.6154H24.7554L24.7207 30.8081L25.0776 30.7911C25.2582 30.5372 25.3989 30.2594 25.4953 29.9664C25.6618 29.4456 25.7439 28.9035 25.7389 28.3589V27.3096H28.5502Z" fill="white"/>
<path fill-rule="evenodd" clip-rule="evenodd" d="M30.8648 28.991H31.4388C32.0043 28.991 32.5867 28.8385 32.5867 28.3715C32.5867 27.9853 32.2219 27.8015 31.4565 27.8015C31.2588 27.8017 31.0612 27.8124 30.8648 27.8336V28.9917V28.991ZM30.8559 30.7849C31.0736 30.8013 31.23 30.8091 31.465 30.8091C31.9873 30.8091 32.7532 30.7048 32.7532 30.1323C32.7532 29.5599 32.1345 29.4487 31.4126 29.4487H30.8559V30.7838V30.7849ZM30.124 27.3983C30.5677 27.3385 31.0155 27.3089 31.4638 27.3096C32.1772 27.3096 33.343 27.4225 33.343 28.2831C33.343 28.7658 32.9427 29.0715 32.4643 29.168V29.184C33.0806 29.2645 33.534 29.5787 33.534 30.1412C33.534 31.1632 32.1422 31.2918 31.3163 31.2918C30.8459 31.2918 30.3505 31.2598 30.1221 31.2437V27.3983H30.124Z" fill="white"/>
<path fill-rule="evenodd" clip-rule="evenodd" d="M37.0654 28.9262C37.0735 28.4929 36.8657 27.8071 36.0087 27.8071C35.2302 27.8071 34.901 28.4454 34.8408 28.9262H37.0654ZM34.8316 29.4231C34.8488 30.3613 35.4981 30.7478 36.2689 30.7478C36.8136 30.7478 37.1505 30.6609 37.4284 30.5509L37.5671 31.0474C37.2988 31.1577 36.8312 31.2918 36.1647 31.2918C34.8753 31.2918 34.1045 30.5114 34.1045 29.3599C34.1045 28.2083 34.8492 27.3096 36.0692 27.3096C37.446 27.3096 37.8002 28.3983 37.8002 29.1001C37.8032 29.2082 37.7947 29.3164 37.7749 29.4231H34.8316Z" fill="white"/>
<path fill-rule="evenodd" clip-rule="evenodd" d="M39.4902 29.7005C39.4878 29.7981 39.5001 29.8956 39.5269 29.9903C39.5944 30.2275 39.7508 30.438 39.9712 30.5884C40.1916 30.7388 40.4632 30.8203 40.7428 30.82C41.5994 30.82 42.0978 30.2078 42.0978 29.314C42.0978 28.5414 41.6271 27.8729 40.7714 27.8729C40.2187 27.8729 39.6933 28.2112 39.5477 28.7428C39.5156 28.8342 39.4969 28.9287 39.4918 29.0241L39.4902 29.7005ZM38.6891 28.6623C38.6891 28.1631 38.6711 27.7602 38.6523 27.3901H39.3715L39.4163 28.0583H39.4355C39.7573 27.5834 40.2921 27.3096 41.0198 27.3096C42.1064 27.3096 42.9173 28.1068 42.9173 29.2819C42.9173 30.6835 41.931 31.3751 40.8819 31.3751C40.2921 31.3751 39.7761 31.1498 39.5085 30.7633H39.4902V32.8811H38.6887V28.6623H38.6891Z" fill="white"/>
<path fill-rule="evenodd" clip-rule="evenodd" d="M43.8547 27.2936H44.5435V31.2877H43.8547V27.2925V27.2936ZM44.6215 26.1714C44.6215 26.4189 44.4576 26.617 44.183 26.617C43.9323 26.617 43.7687 26.4189 43.7687 26.1714C43.7672 26.1114 43.7773 26.0517 43.7983 25.9959C43.8194 25.9401 43.851 25.8894 43.8913 25.8469C43.9315 25.8045 43.9796 25.7711 44.0325 25.7488C44.0854 25.7266 44.142 25.7159 44.1989 25.7174C44.4572 25.7174 44.6215 25.9155 44.6215 26.1714Z" fill="white"/>
<path fill-rule="evenodd" clip-rule="evenodd" d="M45.1934 32.364C45.3925 31.8512 45.6347 30.9379 45.7339 30.3142L46.615 30.2288C46.3995 30.9545 46.0036 31.9026 45.7522 32.3046L45.1934 32.364Z" fill="white"/>
<path fill-rule="evenodd" clip-rule="evenodd" d="M49.9014 28.9921H50.2598C50.893 28.9921 51.3195 28.7234 51.3195 28.368C51.3195 28.0125 50.9861 27.8082 50.5168 27.8082C50.1822 27.8082 49.8068 27.9184 49.5165 28.0842L49.3273 27.6574C49.7427 27.4265 50.219 27.3061 50.7037 27.3096C51.3362 27.3096 52.1041 27.5706 52.1041 28.3134C52.1041 28.7875 51.6344 29.0954 51.1723 29.1825V29.1986C51.7877 29.2535 52.3005 29.5932 52.3005 30.1544C52.3005 30.9759 51.3861 31.2918 50.5149 31.2918C50.0361 31.2918 49.54 31.1732 49.1729 30.9836L49.3689 30.5095C49.7039 30.6815 50.0799 30.774 50.463 30.7785C51.0871 30.7785 51.48 30.5018 51.48 30.1226C51.48 29.6093 50.8987 29.4669 50.2753 29.4669H49.9075L49.8995 28.9928L49.9014 28.9921Z" fill="white"/>
<path fill-rule="evenodd" clip-rule="evenodd" d="M55.4654 29.2576C54.6147 29.2415 53.6488 29.3756 53.6488 30.1169C53.6488 30.5743 53.9862 30.7803 54.3758 30.7803C54.9431 30.7803 55.3057 30.466 55.4301 30.142C55.4536 30.0702 55.4655 29.9958 55.4654 29.921V29.2576ZM56.2187 30.2904C56.2147 30.5963 56.2356 30.902 56.2811 31.2052H55.5807L55.5183 30.7237H55.4917C55.2527 31.0236 54.7921 31.2918 54.1804 31.2918C53.3125 31.2918 52.8691 30.7478 52.8691 30.1958C52.8691 29.2729 53.7904 28.7684 55.4473 28.7764V28.6975C55.4473 28.3899 55.3504 27.8145 54.4731 27.8221C54.0654 27.8221 53.6492 27.9248 53.3478 28.1064L53.1709 27.6409C53.524 27.4436 54.0478 27.3096 54.5885 27.3096C55.8997 27.3096 56.2187 28.1064 56.2187 28.863V30.2904Z" fill="white"/>
<path fill-rule="evenodd" clip-rule="evenodd" d="M61.5373 27.8312C61.3385 27.8034 61.1378 27.7901 60.9369 27.7913C60.452 27.7913 59.8599 27.9287 59.8599 28.4748C59.8599 28.9784 60.4931 29.1651 60.9205 29.1651H61.537V27.8341L61.5373 27.8312ZM62.252 31.2918H61.5373V29.6432H61.0032C60.6988 29.6432 60.4935 29.7241 60.3453 29.8709C60.0409 30.1061 59.9346 30.5853 59.778 30.967C59.7316 31.0789 59.6766 31.1871 59.6134 31.2907H58.8408C58.9378 31.1505 59.0203 31.0009 59.087 30.8443C59.2603 30.4623 59.3589 29.95 59.7121 29.6572C59.8413 29.5453 59.9967 29.4671 60.1643 29.4299V29.414C59.6458 29.3568 59.1124 29.0399 59.1124 28.4309C59.1124 28.0248 59.3342 27.7474 59.6386 27.5776C59.9662 27.3826 60.4527 27.3096 60.9784 27.3096C61.4046 27.3082 61.8303 27.3354 62.2528 27.3909V31.2907L62.252 31.2918Z" fill="white"/>
<path fill-rule="evenodd" clip-rule="evenodd" d="M64.4157 27.311V29.0376H64.5948L66.1391 27.311H67.0503L65.2604 29.1046C65.9261 29.1774 66.3265 29.6056 66.651 30.3215C66.7617 30.5843 66.8988 30.9714 67.0858 31.2918H66.3012C66.1901 31.1189 66.0534 30.8068 65.917 30.478C65.6363 29.8361 65.2521 29.5401 64.5608 29.5401H64.4157V31.2893H63.6738V27.3096L64.4157 27.311Z" fill="white"/>
<path fill-rule="evenodd" clip-rule="evenodd" d="M68.4023 27.311V28.9892C68.4023 29.6148 68.3838 30.0181 68.3482 30.5854L68.3755 30.5937C68.6423 30.1084 68.7859 29.8286 69.0808 29.3677L70.429 27.311H71.3486V31.2918H70.5974V29.6045C70.5974 28.9549 70.6156 28.6176 70.6516 27.9679H70.633C70.3475 28.486 70.1688 28.8059 69.9107 29.21C69.4995 29.8272 69.0175 30.5923 68.5617 31.2918H67.6523V27.3096L68.4023 27.311Z" fill="white"/>
<path fill-rule="evenodd" clip-rule="evenodd" d="M72.8127 27.311H73.7508L74.5066 29.3185C74.6197 29.6148 74.7937 30.0997 74.8891 30.4116H74.9068C75.0023 30.107 75.2366 29.4818 75.4101 29.0453L76.0797 27.3096H77.0271L77.3219 31.2918H76.5907L76.4953 29.391C76.4784 28.9538 76.4434 28.4529 76.4257 27.9679H76.3999C76.2867 28.3301 76.1651 28.6423 75.93 29.2599L75.1219 31.2674H74.5739L73.8266 29.2927C73.6877 28.9221 73.5053 28.3454 73.401 27.9759H73.3664C73.3495 28.4449 73.3318 28.9713 73.3052 29.4074L73.1925 31.2918H72.4883L72.8104 27.3096L72.8127 27.311Z" fill="white"/>
<path fill-rule="evenodd" clip-rule="evenodd" d="M78.9235 27.311V28.9892C78.9235 29.6148 78.9053 30.0181 78.8694 30.5854L78.897 30.5937C79.1639 30.1084 79.3075 29.8286 79.6025 29.3677L80.9508 27.311H81.8701V31.2918H81.1188V29.6045C81.1188 28.9549 81.137 28.6176 81.1726 27.9679H81.1548C80.8693 28.486 80.6906 28.8059 80.4324 29.21C80.0212 29.8272 79.5392 30.5923 79.0833 31.2918H78.1738V27.3096L78.9235 27.311Z" fill="white"/>
<path fill-rule="evenodd" clip-rule="evenodd" d="M85.7407 27.3096V28.9138H87.6696V27.3096H88.411V31.2918H87.6696V29.4898H85.7407V31.2918H84.999V27.3096H85.7407Z" fill="white"/>
<path fill-rule="evenodd" clip-rule="evenodd" d="M91.8588 29.259C91.0081 29.2429 90.0416 29.377 90.0416 30.1183C90.0416 30.5757 90.3787 30.7817 90.768 30.7817C91.3354 30.7817 91.6987 30.4674 91.8231 30.1434C91.8468 30.0716 91.8588 29.9972 91.8588 29.9224V29.259ZM92.6115 30.2918C92.6076 30.5972 92.6287 30.9025 92.6746 31.2052H91.973L91.9114 30.7237H91.8851C91.6462 31.0236 91.1851 31.2918 90.5737 31.2918C89.7049 31.2918 89.2627 30.7478 89.2627 30.1958C89.2627 29.2729 90.1841 28.7684 91.8408 28.7764V28.6975C91.8408 28.3899 91.7439 27.8145 90.8661 27.8222C90.4588 27.8222 90.042 27.9248 89.7399 28.1064L89.5633 27.6409C89.9164 27.4436 90.4415 27.3096 90.981 27.3096C92.2924 27.3096 92.6119 28.1064 92.6119 28.863V30.2904L92.6115 30.2918Z" fill="white"/>
<path fill-rule="evenodd" clip-rule="evenodd" d="M94.935 28.5268C94.935 29.0679 94.8653 29.5846 94.7173 30.0343C94.635 30.2948 94.5239 30.5461 94.3859 30.7841H96.3269V27.8702H94.935V28.5286V28.5268ZM97.0752 27.3096V30.7911L97.511 30.7992L97.4667 32.6158H96.8663L96.8317 31.3411H93.9166L93.8726 32.6158H93.2812L93.2461 30.8085L93.6033 30.7915C93.7839 30.5376 93.9247 30.2597 94.021 29.9667C94.1875 29.446 94.2696 28.9039 94.2646 28.3593V27.3099L97.0752 27.3096Z" fill="white"/>
<path fill-rule="evenodd" clip-rule="evenodd" d="M98.4778 27.2936H99.3949V31.2877H98.4778V27.2936ZM98.4778 31.2888L99.4996 26.1714C99.4996 26.4189 99.28 26.617 98.9161 26.617C98.5825 26.617 98.3625 26.4189 98.3625 26.1714C98.3605 26.1114 98.3739 26.0517 98.4019 25.996C98.4299 25.9402 98.472 25.8895 98.5255 25.8471C98.579 25.8046 98.6428 25.7712 98.7132 25.7489C98.7835 25.7266 98.8588 25.7159 98.9345 25.7174C99.2777 25.7174 99.4978 25.9155 99.4978 26.1714L98.4778 31.2888Z" fill="white"/>
<path fill-rule="evenodd" clip-rule="evenodd" d="M101.8 25.7173C101.824 26.0692 101.997 26.3391 102.327 26.3391C102.681 26.3391 102.846 26.0692 102.887 25.7173H103.406C103.365 26.3801 102.945 26.7319 102.312 26.7319C101.587 26.7319 101.307 26.2735 101.274 25.7173H101.8ZM101.33 27.3295V28.9986C101.33 29.6208 101.314 30.022 101.281 30.5862L101.305 30.5945C101.552 30.1115 101.684 29.8335 101.956 29.3751L103.2 27.3295H104.049V31.2888H103.356V29.6107C103.356 28.9646 103.372 28.629 103.405 27.9825H103.389C103.125 28.4982 102.961 28.816 102.722 29.2179C102.342 29.8339 101.897 30.5949 101.477 31.2888H100.637V27.3281L101.33 27.3295Z" fill="white"/>
<path fill-rule="evenodd" clip-rule="evenodd" d="M106.213 27.3096V28.9138H108.142V27.3096H108.884V31.2918H108.142V29.4898H106.213V31.2918H105.472V27.3096H106.213Z" fill="white"/>
<path fill-rule="evenodd" clip-rule="evenodd" d="M110.547 29.3058C110.547 30.142 111.089 30.7723 111.865 30.7723C112.64 30.7723 113.19 30.149 113.19 29.29C113.19 28.6427 112.821 27.8309 111.883 27.8309C110.945 27.8309 110.547 28.5882 110.547 29.3058ZM114 29.2666C114 30.678 112.873 31.2918 111.827 31.2918C110.655 31.2918 109.735 30.5345 109.735 29.3281C109.735 28.0592 110.7 27.3096 111.899 27.3096C113.099 27.3096 114 28.1074 114 29.2666Z" fill="white"/>
</svg>
