<svg width="46" height="46" viewBox="0 0 46 46" fill="none" xmlns="http://www.w3.org/2000/svg">
<g clip-path="url(#clip0_1745_427)">
<path d="M14.7927 22.9263H10.7168V35.1831H13.43V31.036H14.7927C17.0475 31.036 18.8687 29.2147 18.8687 26.9873C18.8687 24.7599 17.0351 22.9386 14.7927 22.9386V22.9263ZM14.7927 28.3409H13.43V25.6213H14.7927C15.5485 25.6213 16.1555 26.2366 16.1555 26.975C16.1555 27.7133 15.5361 28.3286 14.7927 28.3286V28.3409Z" fill="white"/>
<path d="M24.5174 22.9263H20.4414V35.1831H24.5174C26.7721 35.1831 28.5933 33.3618 28.5933 31.1344V26.9873C28.5933 24.7476 26.7597 22.9386 24.5174 22.9386V22.9263ZM25.8801 31.1221C25.8801 31.8728 25.2607 32.4758 24.5174 32.4758H23.1546V25.609H24.5174C25.2731 25.609 25.8801 26.2243 25.8801 26.9627V31.1098V31.1221Z" fill="white"/>
<path d="M30.1543 35.1831H32.8675V31.036H36.9682V28.3409H32.8675V25.6213H38.3186V22.9263H30.1543V35.1831Z" fill="white"/>
<path d="M46 8.12199H41.8125V0H8.96957L0 8.90958V46H38.133V40.5853H43.5842V17.5115H39.7312L45.9876 11.297V8.12199H46ZM8.17668 4.60246V8.12199H4.63345L8.17668 4.60246ZM35.4199 43.305H2.71317V10.817H10.8898V2.69502H31.1209V8.12199H26.9335V11.297L33.1899 17.5115H5.45112V40.5853H35.4199V43.305ZM40.871 20.2065V37.8903H8.16429V20.2065H35.903L36.4605 20.7603L37.018 20.2065H40.871Z" fill="white"/>
</g>
<defs>
<clipPath id="clip0_1745_427">
<rect width="46" height="46" fill="white"/>
</clipPath>
</defs>
</svg>
