<svg width="42" height="48" viewBox="0 0 42 48" fill="none" xmlns="http://www.w3.org/2000/svg">
<path d="M25.6181 0.907837H16.3813C7.42864 0.907837 0.216797 8.11968 0.216797 17.0723V23.9999C0.216797 30.2526 3.80495 35.9368 9.45364 38.6013V46.346C9.45364 46.7368 9.8089 47.092 10.2707 47.092C10.4484 47.092 10.6615 47.021 10.8036 46.8789L17.4826 40.1644H25.6181C34.5707 40.1644 41.7826 32.9526 41.7826 23.9999V17.0723C41.7826 8.11968 34.5707 0.907837 25.6181 0.907837ZM31.6931 31.2118L29.3839 33.521C26.8971 35.9368 20.5023 33.1657 14.8536 27.4105C9.20496 21.6552 6.68259 15.1539 9.06285 12.7381L11.3721 10.4289C12.2957 9.57626 13.7523 9.61178 14.676 10.4999L18.0155 13.9815C18.8681 14.9052 18.8681 16.2907 17.9444 17.2144C17.6957 17.4631 17.4115 17.6052 17.0918 17.7473C15.9194 18.1026 15.3155 19.2394 15.5997 20.4118C16.1681 22.9697 19.401 26.167 21.8523 26.8065C22.9892 27.0907 24.1615 26.4513 24.5523 25.3499C24.9431 24.2131 26.2221 23.5736 27.43 23.9644C27.7852 24.071 28.0694 24.3197 28.3536 24.5328L31.6931 28.0144C32.5457 28.867 32.5457 30.2881 31.6931 31.2118ZM23.0602 11.8855C22.8115 11.8855 22.5984 11.8855 22.3852 11.9565C21.9944 12.0276 21.5681 11.7078 21.5326 11.246C21.4971 10.7842 21.7813 10.4289 22.2076 10.3934C22.4918 10.3223 22.776 10.3223 23.0602 10.3223C27.3234 10.3223 30.7339 13.8039 30.805 17.996C30.805 18.2802 30.805 18.5644 30.7339 18.8486C30.6628 19.2394 30.3431 19.5947 29.8813 19.5236C29.4194 19.4526 29.1352 19.1328 29.2063 18.671C29.2063 18.4223 29.2773 18.2092 29.2773 17.996C29.2418 14.6565 26.4707 11.8855 23.0602 11.8855ZM27.6786 18.067C27.6076 18.4578 27.2878 18.8131 26.826 18.742C26.4707 18.671 26.151 18.3868 26.151 18.067C26.151 16.3973 24.7655 15.0118 23.0957 15.0118C22.705 15.0828 22.2786 14.7276 22.2431 14.3013C22.1721 13.9105 22.5273 13.4842 22.9181 13.4486H23.0247C25.6892 13.4486 27.6786 15.5092 27.6786 18.067ZM33.576 20.5184C33.505 20.9092 33.1142 21.1934 32.7234 21.1578C32.3326 21.1223 32.0484 20.696 32.0839 20.3052C32.0839 20.2342 32.0839 20.2342 32.0839 20.1986C32.2615 19.5236 32.3326 18.8131 32.3326 18.067C32.3326 12.9868 28.176 8.8302 23.0957 8.8302C22.8471 8.8302 22.6339 8.8302 22.4207 8.8302C22.03 8.90126 21.6036 8.54599 21.6036 8.11968C21.5326 7.72889 21.8878 7.30257 22.2786 7.30257C22.5628 7.30257 22.8471 7.23152 23.0957 7.23152C29.0286 7.23152 33.8957 12.0631 33.8957 18.0315C33.8602 18.8486 33.7536 19.7368 33.576 20.5184Z" fill="#E50046"/>
</svg>
