<svg width="148" height="58" viewBox="0 0 148 58" fill="none" xmlns="http://www.w3.org/2000/svg">
<path fill-rule="evenodd" clip-rule="evenodd" d="M44.1303 36.1966C43.8719 36.3646 43.5983 36.5059 43.3133 36.6186C43.0372 36.7268 42.6588 36.8264 42.1781 36.9176L41.2179 37.1018C40.3183 37.2657 39.6728 37.4657 39.2814 37.7018C38.6169 38.1005 38.2847 38.7192 38.2847 39.5579C38.2847 40.3045 38.488 40.8439 38.8946 41.1763C39.3012 41.5087 39.7945 41.6751 40.3747 41.6753C41.2964 41.6753 42.1456 41.3991 42.9223 40.8465C43.6989 40.2939 44.1021 39.2867 44.1319 37.8247L44.1303 36.1966ZM41.5506 34.1563C42.3359 34.0543 42.897 33.9265 43.2339 33.7729C43.8411 33.5073 44.1444 33.0932 44.1436 32.5306C44.1436 31.845 43.9112 31.3716 43.4464 31.1106C42.9816 30.8496 42.2988 30.7191 41.3979 30.7191C40.388 30.7191 39.6728 30.9748 39.2524 31.4863C38.952 31.865 38.7518 32.3763 38.6519 33.0203H34.5839C34.6737 31.5576 35.0703 30.3559 35.7739 29.4152C36.8935 27.943 38.8162 27.2066 41.542 27.2061C43.3166 27.2061 44.8924 27.5693 46.2696 28.2958C47.6467 29.0223 48.3353 30.3925 48.3353 32.4065V40.0777C48.3353 40.6089 48.3453 41.253 48.3654 42.0101C48.3949 42.5829 48.4787 42.9716 48.6167 43.1761C48.7545 43.3789 48.9624 43.5497 49.2384 43.6824V44.3267H44.6482C44.5286 44.0199 44.4395 43.7012 44.3824 43.3757C44.3323 43.0782 44.2931 42.7401 44.2649 42.3614C43.6744 43.0203 42.9921 43.5839 42.2407 44.0338C41.3274 44.5747 40.295 44.8452 39.1436 44.8452C37.6748 44.8452 36.4613 44.4124 35.503 43.5469C34.5448 42.6814 34.0659 41.4568 34.0664 39.8732C34.0664 37.8176 34.8369 36.33 36.3779 35.4104C37.2235 34.9094 38.466 34.5515 40.1054 34.3364L41.5537 34.1522L41.5506 34.1563Z" fill="white" fill-opacity="0.6"/>
<path fill-rule="evenodd" clip-rule="evenodd" d="M62.1281 32.5705C61.5614 31.5683 60.6435 31.0673 59.3743 31.0673C57.8494 31.0673 56.8016 31.8267 56.231 33.3457C55.9356 34.1516 55.7877 35.1747 55.7875 36.4149C55.7875 37.0891 55.8462 37.695 55.9637 38.2326C56.1878 39.2577 56.6257 40.0312 57.2774 40.5532C57.8675 41.0178 58.5661 41.2501 59.3731 41.2501C60.5447 41.2501 61.4381 40.7748 62.0535 39.824C62.6689 38.8732 62.9763 37.6073 62.9758 36.0263C62.9758 34.7243 62.6931 33.5721 62.1277 32.5697L62.1281 32.5705ZM65.3235 29.3931C66.622 30.85 67.2714 32.9891 67.2717 35.8103C67.2717 38.7864 66.637 41.0547 65.3676 42.6152C64.0982 44.1757 62.4633 44.9554 60.4631 44.9543C59.1888 44.9543 58.1301 44.6186 57.287 43.9471C56.8257 43.5749 56.3749 43.0323 55.9347 42.3193V51.1235H51.8135V27.5795H55.8022V30.0736C56.2535 29.3401 56.734 28.7614 57.2438 28.3375C58.1747 27.5832 59.2823 27.2061 60.5667 27.2061C62.4386 27.2069 64.0242 27.9359 65.3235 29.3931Z" fill="white" fill-opacity="0.6"/>
<path d="M74.7158 21.8242H70.4219V44.2468H74.7158V21.8242Z" fill="white" fill-opacity="0.6"/>
<path fill-rule="evenodd" clip-rule="evenodd" d="M88.818 39.8683C89.4718 38.9688 89.7991 37.6905 89.7999 36.0332C89.8007 34.376 89.4734 33.1003 88.818 32.2062C88.164 31.312 87.2265 30.8647 86.0057 30.8641C84.7849 30.8636 83.845 31.3109 83.186 32.2062C82.5271 33.1003 82.1976 34.376 82.1976 36.0332C82.1976 37.6905 82.5271 38.9688 83.186 39.8683C83.8452 40.7676 84.7851 41.2172 86.0057 41.2172C87.2263 41.2172 88.1637 40.7676 88.818 39.8683ZM92.1583 42.2594C90.8104 43.9832 88.7645 44.8452 86.0204 44.8452C83.2764 44.8452 81.2308 43.9832 79.8837 42.2594C78.5364 40.5361 77.8626 38.4607 77.8623 36.0332C77.8623 33.6061 78.5363 31.5799 79.8837 29.83C81.2312 28.08 83.2767 27.2061 86.0204 27.2061C88.7642 27.2061 90.8104 28.0804 92.1583 29.83C93.5061 31.5795 94.1793 33.647 94.1793 36.0332C94.1793 38.4195 93.5054 40.536 92.1583 42.2594Z" fill="white" fill-opacity="0.6"/>
<path fill-rule="evenodd" clip-rule="evenodd" d="M95.6133 30.8179V27.6953H97.8213V23.0205H101.917V27.6957H104.487V30.8184H101.917V39.677C101.917 40.3641 101.999 40.7923 102.163 40.9615C102.328 41.1307 102.831 41.2153 103.675 41.2153C103.8 41.2153 103.934 41.2129 104.074 41.2076C104.214 41.2023 104.351 41.1946 104.487 41.1844V44.4604L102.528 44.5373C100.572 44.6089 99.236 44.25 98.5192 43.4606C98.0544 42.9581 97.8221 42.1841 97.8224 41.1385V30.8179H95.6148H95.6133Z" fill="white" fill-opacity="0.6"/>
<path d="M111.644 39.7617H107.063V44.2462H111.644V39.7617Z" fill="white" fill-opacity="0.6"/>
<path fill-rule="evenodd" clip-rule="evenodd" d="M119.709 27.5049V37.7319C119.709 38.6968 119.817 39.4233 120.034 39.9112C120.418 40.7724 121.173 41.203 122.297 41.203C123.736 41.203 124.723 40.5909 125.255 39.3666C125.532 38.7022 125.67 37.8253 125.67 36.7361V27.5049H129.967V44.4721H125.849V42.0749C125.809 42.1268 125.71 42.2824 125.552 42.5418C125.397 42.7974 125.207 43.0281 124.989 43.2268C124.326 43.8492 123.686 44.2746 123.068 44.5029C122.45 44.7313 121.727 44.8453 120.897 44.845C118.505 44.845 116.894 43.9423 116.064 42.1367C115.599 41.1405 115.367 39.6722 115.367 37.7319V27.5049H119.709Z" fill="white" fill-opacity="0.6"/>
<path fill-rule="evenodd" clip-rule="evenodd" d="M142.893 36.1966C142.634 36.3646 142.361 36.506 142.076 36.6186C141.8 36.7268 141.421 36.8264 140.941 36.9176L139.981 37.1018C139.081 37.2657 138.434 37.4651 138.042 37.7002C137.377 38.0989 137.045 38.7176 137.045 39.5563C137.045 40.3028 137.248 40.8423 137.654 41.1747C138.06 41.5071 138.553 41.6735 139.134 41.6737C140.056 41.6737 140.906 41.3974 141.682 40.8449C142.458 40.2923 142.862 39.2852 142.893 37.8235V36.1966ZM140.314 34.1563C141.099 34.0543 141.66 33.9265 141.997 33.7729C142.604 33.5073 142.908 33.0932 142.908 32.5306C142.908 31.845 142.675 31.3716 142.21 31.1106C141.744 30.8496 141.062 30.7191 140.162 30.7191C139.151 30.7191 138.435 30.9748 138.015 31.4863C137.715 31.865 137.515 32.3763 137.416 33.0203H133.345C133.434 31.5576 133.83 30.3559 134.534 29.4152C135.654 27.943 137.577 27.2066 140.302 27.2061C142.076 27.2061 143.652 27.5693 145.029 28.2958C146.406 29.0223 147.095 30.3925 147.096 32.4065V40.0777C147.096 40.6089 147.106 41.253 147.126 42.0101C147.155 42.5829 147.239 42.9716 147.377 43.1761C147.515 43.3806 147.722 43.5493 147.999 43.6824V44.3267H143.409C143.29 44.0198 143.201 43.7012 143.144 43.3757C143.093 43.0787 143.055 42.7416 143.026 42.3614C142.436 43.0205 141.753 43.5841 141.001 44.0338C140.088 44.5747 139.056 44.8452 137.904 44.8452C136.435 44.8452 135.222 44.4124 134.264 43.5469C133.305 42.6814 132.827 41.4568 132.827 39.8732C132.827 37.8176 133.597 36.33 135.137 35.4104C135.982 34.9094 137.225 34.5515 138.865 34.3364L140.313 34.1522L140.314 34.1563Z" fill="white" fill-opacity="0.6"/>
<path fill-rule="evenodd" clip-rule="evenodd" d="M59.8129 53.0933C59.8129 53.703 59.7427 54.2853 59.5937 54.792C59.5108 55.0856 59.3989 55.3688 59.26 55.637H61.2147V52.3534H59.8129V53.0954V53.0933ZM61.9678 51.7217V55.6449L62.4063 55.654L62.362 57.701H61.7575L61.7218 56.2642H58.787L58.7428 57.7006H58.1472L58.1123 55.664L58.4716 55.6449C58.6535 55.3588 58.7952 55.0457 58.8922 54.7155C59.0598 54.1287 59.1425 53.5178 59.1374 52.9042V51.7217H61.9678Z" fill="white" fill-opacity="0.6"/>
<path fill-rule="evenodd" clip-rule="evenodd" d="M64.2986 53.6151H64.8764C65.4458 53.6151 66.0322 53.4434 66.0322 52.9175C66.0322 52.4827 65.6649 52.2757 64.8943 52.2757C64.6952 52.2759 64.4963 52.288 64.2986 52.3118V53.6159V53.6151ZM64.2896 55.6354C64.5088 55.6538 64.6662 55.6626 64.9028 55.6626C65.4287 55.6626 66.1998 55.5451 66.1998 54.9004C66.1998 54.2558 65.5769 54.1306 64.8501 54.1306H64.2896V55.6342V55.6354ZM63.5527 51.8216C63.9994 51.7543 64.4503 51.7209 64.9016 51.7217C65.6199 51.7217 66.7936 51.8489 66.7936 52.818C66.7936 53.3616 66.3906 53.7058 65.9089 53.8145V53.8326C66.5294 53.9232 66.9859 54.2771 66.9859 54.9105C66.9859 56.0614 65.5846 56.2062 64.7531 56.2062C64.2795 56.2062 63.7808 56.1701 63.5508 56.1521V51.8216H63.5527Z" fill="white" fill-opacity="0.6"/>
<path fill-rule="evenodd" clip-rule="evenodd" d="M70.5416 53.5422C70.5497 53.0543 70.3406 52.282 69.4777 52.282C68.6939 52.282 68.3624 53.0008 68.3019 53.5422H70.5416ZM68.2926 54.1018C68.31 55.1583 68.9637 55.5936 69.7397 55.5936C70.2881 55.5936 70.6273 55.4957 70.9071 55.3718L71.0468 55.931C70.7766 56.0552 70.3058 56.2062 69.6347 56.2062C68.3366 56.2062 67.5605 55.3274 67.5605 54.0306C67.5605 52.7338 68.3104 51.7217 69.5387 51.7217C70.9248 51.7217 71.2814 52.9477 71.2814 53.738C71.2844 53.8598 71.2759 53.9816 71.2559 54.1018H68.2926Z" fill="white" fill-opacity="0.6"/>
<path fill-rule="evenodd" clip-rule="evenodd" d="M72.9832 54.4159C72.9808 54.5259 72.9932 54.6357 73.0201 54.7425C73.0881 55.0097 73.2456 55.247 73.4675 55.4164C73.6894 55.5859 73.9628 55.6778 74.2443 55.6774C75.1067 55.6774 75.6086 54.9876 75.6086 53.9804C75.6086 53.1098 75.1347 52.3565 74.2731 52.3565C73.7166 52.3565 73.1877 52.7377 73.0411 53.3368C73.0088 53.4397 72.9899 53.5462 72.9848 53.6538L72.9832 54.4159ZM72.1766 53.246C72.1766 52.6835 72.1585 52.2295 72.1396 51.8125H72.8637L72.9088 52.5654H72.9281C73.2522 52.0302 73.7905 51.7217 74.5232 51.7217C75.6172 51.7217 76.4336 52.62 76.4336 53.9442C76.4336 55.5236 75.4406 56.303 74.3844 56.303C73.7905 56.303 73.271 56.0491 73.0017 55.6136H72.9832V58H72.1762V53.246H72.1766Z" fill="white" fill-opacity="0.6"/>
<path fill-rule="evenodd" clip-rule="evenodd" d="M77.3777 51.703H78.0713V56.2039H77.3777V51.7018V51.703ZM78.1498 50.4385C78.1498 50.7174 77.9847 50.9406 77.7083 50.9406C77.4559 50.9406 77.2912 50.7174 77.2912 50.4385C77.2896 50.3709 77.2998 50.3036 77.321 50.2407C77.3422 50.1778 77.3741 50.1207 77.4146 50.0729C77.4551 50.025 77.5035 49.9874 77.5567 49.9623C77.61 49.9372 77.667 49.9252 77.7243 49.9269C77.9844 49.9269 78.1498 50.1502 78.1498 50.4385Z" fill="white" fill-opacity="0.6"/>
<path fill-rule="evenodd" clip-rule="evenodd" d="M78.7246 57.4015C78.9251 56.8271 79.169 55.804 79.2688 55.1055L80.1559 55.0098C79.939 55.8227 79.5403 56.8847 79.2873 57.335L78.7246 57.4015Z" fill="white" fill-opacity="0.6"/>
<path fill-rule="evenodd" clip-rule="evenodd" d="M83.464 53.6165H83.8248C84.4623 53.6165 84.8917 53.3139 84.8917 52.9136C84.8917 52.5133 84.556 52.2832 84.0835 52.2832C83.7467 52.2832 83.3687 52.4073 83.0765 52.5941L82.8859 52.1134C83.3042 51.8533 83.7838 51.7178 84.2718 51.7218C84.9085 51.7218 85.6816 52.0157 85.6816 52.8521C85.6816 53.386 85.2087 53.7327 84.7435 53.8308V53.8489C85.3631 53.9108 85.8794 54.2934 85.8794 54.9253C85.8794 55.8504 84.9588 56.2062 84.0816 56.2062C83.5996 56.2062 83.1001 56.0726 82.7305 55.8591L82.9279 55.3252C83.2651 55.5189 83.6437 55.623 84.0294 55.6282C84.6578 55.6282 85.0533 55.3166 85.0533 54.8895C85.0533 54.3115 84.468 54.1511 83.8404 54.1511H83.4701L83.4621 53.6173L83.464 53.6165Z" fill="white" fill-opacity="0.6"/>
<path fill-rule="evenodd" clip-rule="evenodd" d="M89.066 53.9154C88.2096 53.8973 87.2371 54.0483 87.2371 54.8831C87.2371 55.3982 87.5768 55.6302 87.9691 55.6302C88.5403 55.6302 88.9053 55.2763 89.0305 54.9114C89.0542 54.8305 89.0662 54.7467 89.066 54.6625V53.9154ZM89.8245 55.0785C89.8205 55.4229 89.8415 55.7672 89.8873 56.1087H89.1822L89.1194 55.5665H89.0925C88.8519 55.9042 88.3882 56.2062 87.7723 56.2062C86.8985 56.2062 86.4521 55.5936 86.4521 54.9719C86.4521 53.9327 87.3797 53.3645 89.0479 53.3735V53.2847C89.0479 52.9383 88.9503 52.2903 88.067 52.2989C87.6566 52.2989 87.2375 52.4145 86.9341 52.619L86.7559 52.0948C87.1114 51.8727 87.6388 51.7217 88.1832 51.7217C89.5033 51.7217 89.8245 52.619 89.8245 53.4711V55.0785Z" fill="white" fill-opacity="0.6"/>
<path fill-rule="evenodd" clip-rule="evenodd" d="M95.1797 52.3091C94.9795 52.2778 94.7774 52.2628 94.5752 52.2642C94.0869 52.2642 93.4909 52.4189 93.4909 53.0339C93.4909 53.601 94.1284 53.8112 94.5587 53.8112H95.1793V52.3124L95.1797 52.3091ZM95.8993 56.2062H95.1797V54.3496H94.6419C94.3355 54.3496 94.1287 54.4408 93.9795 54.6061C93.6731 54.871 93.566 55.4106 93.4084 55.8404C93.3617 55.9664 93.3063 56.0883 93.2427 56.205H92.4648C92.5625 56.047 92.6456 55.8786 92.7127 55.7023C92.8871 55.272 92.9865 54.6952 93.3421 54.3654C93.4721 54.2394 93.6286 54.1514 93.7973 54.1094V54.0916C93.2753 54.0272 92.7383 53.6703 92.7383 52.9844C92.7383 52.5271 92.9616 52.2147 93.268 52.0235C93.5979 51.804 94.0877 51.7217 94.617 51.7217C95.046 51.7202 95.4747 51.7508 95.9 51.8133V56.205L95.8993 56.2062Z" fill="white" fill-opacity="0.6"/>
<path fill-rule="evenodd" clip-rule="evenodd" d="M98.078 51.7233V53.6677H98.2583L99.8131 51.7233H100.73L98.9285 53.7431C99.5986 53.8251 100.002 54.3073 100.328 55.1135C100.44 55.4095 100.578 55.8454 100.766 56.2062H99.9763C99.8644 56.0114 99.7268 55.66 99.5895 55.2898C99.3069 54.5669 98.9201 54.2335 98.2241 54.2335H98.078V56.2033H97.3311V51.7217L98.078 51.7233Z" fill="white" fill-opacity="0.6"/>
<path fill-rule="evenodd" clip-rule="evenodd" d="M102.092 51.7233V53.6131C102.092 54.3176 102.073 54.7718 102.037 55.4106L102.065 55.4201C102.334 54.8736 102.478 54.5585 102.775 54.0394L104.132 51.7233H105.058V56.2062H104.302V54.3061C104.302 53.5746 104.32 53.1946 104.357 52.4631H104.338C104.05 53.0465 103.871 53.4068 103.611 53.8618C103.197 54.5568 102.711 55.4184 102.252 56.2062H101.337V51.7217L102.092 51.7233Z" fill="white" fill-opacity="0.6"/>
<path fill-rule="evenodd" clip-rule="evenodd" d="M106.532 51.7233H107.476L108.237 53.9841C108.351 54.3176 108.526 54.8637 108.622 55.2149H108.64C108.736 54.8719 108.972 54.1679 109.147 53.6763L109.821 51.7217H110.775L111.072 56.2062H110.335L110.239 54.0657C110.222 53.5733 110.187 53.0092 110.169 52.4631H110.143C110.029 52.8709 109.907 53.2225 109.67 53.918L108.857 56.1787H108.305L107.553 53.9549C107.413 53.5376 107.229 52.8881 107.124 52.4721H107.089C107.072 53.0002 107.054 53.593 107.028 54.0842L106.914 56.2062H106.205L106.529 51.7217L106.532 51.7233Z" fill="white" fill-opacity="0.6"/>
<path fill-rule="evenodd" clip-rule="evenodd" d="M112.684 51.7233V53.6131C112.684 54.3176 112.666 54.7718 112.63 55.4106L112.658 55.4201C112.927 54.8736 113.071 54.5585 113.368 54.0394L114.726 51.7233H115.651V56.2062H114.895V54.3061C114.895 53.5746 114.913 53.1946 114.949 52.4631H114.931C114.644 53.0465 114.464 53.4068 114.204 53.8618C113.79 54.5568 113.304 55.4184 112.845 56.2062H111.93V51.7217L112.684 51.7233Z" fill="white" fill-opacity="0.6"/>
<path fill-rule="evenodd" clip-rule="evenodd" d="M119.548 51.7217V53.5282H121.49V51.7217H122.236V56.2062H121.49V54.1769H119.548V56.2062H118.801V51.7217H119.548Z" fill="white" fill-opacity="0.6"/>
<path fill-rule="evenodd" clip-rule="evenodd" d="M125.708 53.917C124.851 53.8989 123.878 54.0499 123.878 54.8846C123.878 55.3997 124.217 55.6317 124.609 55.6317C125.181 55.6317 125.546 55.2778 125.672 54.9129C125.695 54.8321 125.708 54.7483 125.708 54.664V53.917ZM126.465 55.0801C126.461 55.424 126.483 55.7678 126.529 56.1087H125.823L125.76 55.5665H125.734C125.493 55.9042 125.029 56.2062 124.414 56.2062C123.539 56.2062 123.094 55.5936 123.094 54.9719C123.094 53.9327 124.021 53.3645 125.689 53.3735V53.2847C125.689 52.9383 125.592 52.2903 124.708 52.2989C124.298 52.2989 123.878 52.4145 123.574 52.619L123.396 52.0948C123.752 51.8727 124.281 51.7217 124.824 51.7217C126.144 51.7217 126.466 52.619 126.466 53.4711V55.0785L126.465 55.0801Z" fill="white" fill-opacity="0.6"/>
<path fill-rule="evenodd" clip-rule="evenodd" d="M128.805 53.0933C128.805 53.703 128.735 54.2853 128.586 54.792C128.503 55.0856 128.391 55.3688 128.252 55.637H130.206V52.3534H128.805V53.0954V53.0933ZM130.96 51.7217V55.6449L131.398 55.654L131.354 57.701H130.749L130.714 56.2646H127.78L127.735 57.701H127.14L127.104 55.6644L127.464 55.6453C127.646 55.3592 127.788 55.0461 127.885 54.7159C128.052 54.1291 128.135 53.5182 128.13 52.9046V51.7221L130.96 51.7217Z" fill="white" fill-opacity="0.6"/>
<path fill-rule="evenodd" clip-rule="evenodd" d="M132.372 51.703H133.295V56.2039H132.372V51.703ZM132.372 56.2051L133.401 50.4385C133.401 50.7173 133.18 50.9406 132.813 50.9406C132.478 50.9406 132.256 50.7173 132.256 50.4385C132.254 50.3709 132.268 50.3036 132.296 50.2408C132.324 50.178 132.366 50.1209 132.42 50.073C132.474 50.0252 132.538 49.9875 132.609 49.9624C132.68 49.9373 132.756 49.9252 132.832 49.9269C133.178 49.9269 133.399 50.1502 133.399 50.4385L132.372 56.2051Z" fill="white" fill-opacity="0.6"/>
<path fill-rule="evenodd" clip-rule="evenodd" d="M135.716 49.9268C135.74 50.3233 135.915 50.6275 136.247 50.6275C136.603 50.6275 136.769 50.3233 136.811 49.9268H137.333C137.292 50.6736 136.869 51.0701 136.232 51.0701C135.502 51.0701 135.22 50.5536 135.187 49.9268H135.716ZM135.243 51.7435V53.6243C135.243 54.3255 135.227 54.7775 135.193 55.4133L135.218 55.4227C135.467 54.8784 135.599 54.5652 135.873 54.0486L137.125 51.7435H137.98V56.2051H137.282V54.314C137.282 53.586 137.299 53.2078 137.332 52.4793H137.316C137.051 53.0604 136.885 53.4185 136.644 53.8714C136.262 54.5656 135.814 55.4231 135.391 56.2051H134.545V51.7419L135.243 51.7435Z" fill="white" fill-opacity="0.6"/>
<path fill-rule="evenodd" clip-rule="evenodd" d="M140.16 51.7217V53.5282H142.102V51.7217H142.848V56.2062H142.102V54.1769H140.16V56.2062H139.413V51.7217H140.16Z" fill="white" fill-opacity="0.6"/>
<path fill-rule="evenodd" clip-rule="evenodd" d="M144.523 53.9696C144.523 54.9114 145.069 55.6211 145.85 55.6211C146.631 55.6211 147.184 54.9192 147.184 53.9519C147.184 53.2229 146.813 52.3087 145.868 52.3087C144.924 52.3087 144.523 53.1616 144.523 53.9696ZM148 53.9256C148 55.5149 146.865 56.2062 145.812 56.2062C144.632 56.2062 143.706 55.3533 143.706 53.9948C143.706 52.5659 144.677 51.7217 145.885 51.7217C147.092 51.7217 148 52.6202 148 53.9256Z" fill="white" fill-opacity="0.6"/>
<path fill-rule="evenodd" clip-rule="evenodd" d="M0 4.65322L27.7675 0L26.287 56.804H1.85077L0 4.65322ZM19.3229 29.8406H22.5839V28.7999C22.5842 28.6536 22.6398 28.5133 22.7387 28.4099C22.8375 28.3064 22.9715 28.2482 23.1112 28.248H24.1613C24.3009 28.2483 24.4348 28.3066 24.5335 28.41C24.6323 28.5135 24.6879 28.6537 24.6882 28.7999V34.6164C24.6879 34.7627 24.6323 34.9029 24.5335 35.0064C24.4348 35.1098 24.3009 35.168 24.1613 35.1684H23.1112C22.9715 35.1682 22.8375 35.11 22.7387 35.0065C22.6398 34.9031 22.5842 34.7628 22.5839 34.6164V31.0361H19.3229C19.2472 31.0359 19.1746 31.0043 19.121 30.9482C19.0675 30.8921 19.0373 30.8161 19.0371 30.7367V30.1404C19.0373 30.061 19.0675 29.985 19.121 29.9288C19.1746 29.8727 19.2472 29.841 19.3229 29.8406ZM15.6552 16.3722C15.6552 16.567 15.6 16.7575 15.4967 16.9194C15.3934 17.0814 15.2465 17.2076 15.0746 17.2822C14.9028 17.3567 14.7137 17.3762 14.5312 17.3381C14.3488 17.3001 14.1813 17.2063 14.0498 17.0685C13.9183 16.9307 13.8287 16.7552 13.7925 16.5641C13.7563 16.373 13.7749 16.175 13.8462 15.995C13.9174 15.8151 14.038 15.6613 14.1927 15.5531C14.3474 15.4449 14.5292 15.3872 14.7152 15.3873C14.9646 15.3874 15.2036 15.4912 15.3799 15.6759C15.5562 15.8606 15.6552 16.1111 15.6552 16.3722Z" fill="white" fill-opacity="0.6"/>
</svg>
