<svg width="24" height="63" viewBox="0 0 24 63" fill="none" xmlns="http://www.w3.org/2000/svg">
<path d="M16.1506 62.6355C15.5653 62.6105 14.3006 62.8121 13.9646 62.2128C13.5108 61.4035 14.453 61.1322 15.056 60.9536C16.2418 60.6025 18.1875 60.8725 19.1682 60.1828C11.0809 55.0376 5.16982 47.424 2.32601 38.1614C-0.502484 28.9486 -0.705297 17.8006 4.67238 9.46777C7.30446 5.38927 11.0186 2.06804 15.8253 0.961128C16.2378 0.866136 18.2548 0.300564 18.1414 1.16902C18.0822 1.62175 15.4853 2.32225 15.0413 2.52076C12.7329 3.55248 10.734 4.93391 8.97973 6.76407C3.00237 13.0002 1.49051 22.5763 2.70666 30.8871C3.51231 36.3924 5.55174 41.841 8.49299 46.574C10.0111 49.017 11.7916 51.365 13.8546 53.3676C15.5946 55.0566 18.3926 57.9029 20.8072 58.4965C20.5658 56.3165 18.2176 54.291 17.6597 52.1498C17.364 51.0154 17.9517 49.7558 19.1743 50.5875C20.1656 51.2617 20.7322 53.3243 21.2384 54.3787C21.8033 55.5552 22.3275 56.7434 22.7816 57.9678C23.1148 58.8659 24.1975 60.6534 23.7911 61.5764C23.0724 63.2085 17.6529 62.6504 16.1506 62.6355C16.7774 62.6417 15.5387 62.6093 16.1506 62.6355Z" fill="#39393B"/>
<path d="M16.1506 62.6355C15.5653 62.6105 14.3006 62.8121 13.9646 62.2128C13.5108 61.4035 14.453 61.1322 15.056 60.9536C16.2418 60.6025 18.1875 60.8725 19.1682 60.1828C11.0809 55.0376 5.16982 47.424 2.32601 38.1614C-0.502484 28.9486 -0.705297 17.8006 4.67238 9.46777C7.30446 5.38927 11.0186 2.06804 15.8253 0.961128C16.2378 0.866136 18.2548 0.300564 18.1414 1.16902C18.0822 1.62175 15.4853 2.32225 15.0413 2.52076C12.7329 3.55248 10.734 4.93391 8.97973 6.76407C3.00237 13.0002 1.49051 22.5763 2.70666 30.8871C3.51231 36.3924 5.55174 41.841 8.49299 46.574C10.0111 49.017 11.7916 51.365 13.8546 53.3676C15.5946 55.0566 18.3926 57.9029 20.8072 58.4965C20.5658 56.3165 18.2176 54.291 17.6597 52.1498C17.364 51.0154 17.9517 49.7558 19.1743 50.5875C20.1656 51.2617 20.7322 53.3243 21.2384 54.3787C21.8033 55.5552 22.3275 56.7434 22.7816 57.9678C23.1148 58.8659 24.1975 60.6534 23.7911 61.5764C23.0724 63.2085 17.6529 62.6504 16.1506 62.6355C16.7774 62.6417 15.5387 62.6093 16.1506 62.6355Z" fill="url(#paint0_radial_1838_1050)"/>
<defs>
<radialGradient id="paint0_radial_1838_1050" cx="0" cy="0" r="1" gradientUnits="userSpaceOnUse" gradientTransform="translate(19.7293 59.5538) rotate(-98.957) scale(52.7982 107.638)">
<stop stop-color="white"/>
<stop offset="1" stop-color="#3E3D3F"/>
</radialGradient>
</defs>
</svg>
