<?xml version="1.0" encoding="UTF-8"?>
<svg id="Layer_1" data-name="Layer 1" xmlns="http://www.w3.org/2000/svg" viewBox="0 0 102.43 109.5">
  <defs>
    <style>
      .cls-1 {
        fill: #e50546;
      }

      .cls-2 {
        fill: #fff;
      }
    </style>
  </defs>
  <path class="cls-1" d="M64.41,7.46h-31.49c-15.56,0-28.18,12.62-28.18,28.18v29.01c0,13.82,9.4,25.44,22.16,28.83l1.43,12.64,14.77-11.63h20.49c19.68,0,35.64-15.95,35.64-35.64v-16.57c0-19.22-15.58-34.81-34.81-34.81Z"/>
  <path class="cls-2" d="M24.79,98.84v-5.5c.01-.08.01-.15,0-.23-.02-.07-.05-.14-.1-.2-.05-.06-.1-.11-.17-.15-.07-.04-.14-.06-.22-.07-4.59-1.29-8.82-3.59-12.39-6.72-2.6-2.34-4.76-5.11-6.39-8.19-2.3-4.45-3.83-9.25-4.52-14.19C.13,57.38-.17,51.11.09,44.85c.06-2.92.21-5.8.54-8.72.53-5.55,1.95-10.97,4.19-16.09,2.77-6.28,7.78-11.33,14.09-14.17,4.29-1.94,8.81-3.36,13.45-4.23,4.55-.85,9.16-1.38,13.79-1.57,4.17-.15,8.35-.09,12.51.18,5.96.25,11.87,1.23,17.59,2.91,4.24,1.21,8.27,3.04,11.97,5.43,3.6,2.45,6.51,5.76,8.46,9.63,2.29,4.52,3.85,9.36,4.61,14.36.5,2.97.83,5.96.98,8.96.22,3.72.19,7.46.05,11.17-.14,3.71-.46,7.3-.92,10.94-.58,5.45-2.27,10.73-4.97,15.51-3.51,6.05-9.15,10.62-15.83,12.85-4.57,1.58-9.29,2.71-14.09,3.37-3.51.48-7.03.83-10.56.97-2.71.12-5.41.09-8.12.05-1.53,0-3.06-.15-4.58-.28-.15-.03-.3-.01-.44.05-.14.06-.26.16-.34.28-3.08,3.66-6.28,7.23-9.51,10.78-.59.65-1.27,1.21-2.02,1.66-.49.32-1.05.52-1.64.59-.59.07-1.18,0-1.73-.21-.55-.2-1.05-.53-1.45-.96-.4-.43-.69-.94-.86-1.51-.32-1-.48-2.04-.47-3.08,0-1.64,0-3.26,0-4.87ZM28.51,105.8l.39-.36,6.99-7.69c2.69-2.96,5.38-5.92,8.07-8.88.13-.18.31-.32.52-.41.21-.09.43-.13.66-.1.91.09,1.83.12,2.75.13,3.18,0,6.37,0,9.55-.22,2.89-.22,5.77-.57,8.64-1.02,3.08-.53,6.14-1.23,9.15-2.08,6.7-1.78,11.89-5.6,15.14-11.77,1.92-3.8,3.13-7.91,3.56-12.14.51-3.98.81-7.99.91-12.01.15-5.04-.2-10.09-1.04-15.06-.58-3.61-1.63-7.12-3.12-10.46-1.89-4.15-4.57-7.58-8.7-9.78-6.33-3.38-13.18-4.89-20.24-5.66-2-.22-4-.33-6.01-.41-4.12-.21-8.24-.19-12.35.07-2.96.22-5.9.61-8.81,1.18-4.28.77-8.42,2.17-12.29,4.15-2.24,1.12-4.27,2.61-6.01,4.4-2.82,3.12-4.89,6.83-6.05,10.85-1.38,4.69-2.13,9.53-2.24,14.41-.27,4.88-.21,9.77.18,14.64.24,2.9.73,5.77,1.47,8.59,1.09,4.39,3.2,8.47,6.16,11.91,3.2,3.51,7.34,6.05,11.93,7.33.58.17.84.37.84,1.02-.05,2.39,0,4.78,0,7.16l-.04,12.23Z"/>
  <path class="cls-2" d="M22.65,31.74c-.06-1.82.94-3.13,2.14-4.32,1.59-1.51,3.34-2.84,5.23-3.97.86-.52,1.88-.72,2.87-.56,1,.16,1.9.67,2.54,1.44,2.28,2.37,4.32,4.96,6.09,7.72.88,1.24,1.54,2.62,1.96,4.08.17.57.18,1.17.03,1.75-.15.57-.45,1.1-.87,1.52-.97.94-2,1.81-3.08,2.61-.55.43-.95,1.01-1.17,1.67-.22.66-.23,1.37-.04,2.03.67,3.14,2.19,6.03,4.4,8.37,2.68,3.24,6.14,5.77,10.05,7.35.96.49,2.06.64,3.12.42.58-.16,1.1-.49,1.47-.95.59-.74,1.22-1.45,1.75-2.24.68-.98,1.73-1.66,2.91-1.89,1.18-.23,2.41,0,3.42.66,2.84,1.63,5.52,3.52,8.01,5.64.59.5,1.2.98,1.78,1.48.69.52,1.2,1.26,1.43,2.09.23.83.18,1.72-.15,2.52-.52,1.35-1.27,2.59-2.23,3.68-1.19,1.64-2.7,3.01-4.45,4.05-.83.49-1.77.77-2.74.83-.97.06-1.93-.1-2.82-.48-6.78-2.7-13.11-6.39-18.79-10.94-5.55-4.53-10.41-9.83-14.41-15.75-3.36-4.9-6.04-10.23-7.96-15.84-.2-.68-.37-1.37-.5-2.06-.04-.3-.04-.61-.02-.91Z"/>
  <path class="cls-2" d="M51.57,22.92c5.67.1,11.12,2.17,15.41,5.85,4.29,3.68,7.13,8.72,8.04,14.26.37,2.01.56,4.06.59,6.1,0,.48-.13.83-.64.88-.52.05-.65-.39-.65-.83.08-4.14-.78-8.25-2.51-12.01-1.46-3.1-3.62-5.82-6.31-7.95-2.7-2.14-5.85-3.63-9.22-4.36-1.78-.41-3.61-.62-5.44-.63-.18,0-.36-.02-.53-.07-.15-.04-.27-.14-.35-.27-.08-.13-.1-.28-.06-.43,0-.07.02-.14.04-.2.03-.06.07-.12.12-.17.05-.05.11-.09.18-.11.07-.02.14-.04.2-.03.38-.05.76-.03,1.14-.03Z"/>
  <path class="cls-2" d="M67.73,45.41c-.03-2.3-.6-4.57-1.67-6.61-1.07-2.04-2.61-3.81-4.5-5.16-2.2-1.53-4.76-2.48-7.44-2.76-.45-.06-.9-.08-1.37-.13-.46-.05-.74-.24-.69-.7.04-.46.33-.63.84-.6,7.42.45,13.74,4.6,15.68,12.34.36,1.49.53,3.02.53,4.55v.41c0,.41-.27.69-.68.68-.09,0-.18-.02-.26-.06-.08-.04-.16-.09-.22-.16-.06-.07-.11-.15-.14-.23-.03-.09-.04-.18-.03-.27-.07-.39-.05-.79-.05-1.29Z"/>
  <path class="cls-2" d="M54.73,36.17c4.07.27,6.91,2.25,7.69,6.53.09.55.16,1.1.2,1.66,0,.45-.1.83-.6.83s-.66-.33-.68-.83c0-1.64-.52-3.25-1.47-4.59-1-1.22-2.43-2.02-4-2.22-.35-.06-.71-.11-1.06-.13-.59,0-.91-.29-.84-.74.08-.45.43-.53.75-.51Z"/>
</svg>