<svg width="54" height="54" viewBox="0 0 54 54" fill="none" xmlns="http://www.w3.org/2000/svg">
<rect x="12" y="8" width="32" height="32" rx="7" fill="white"/>
<path d="M31.6181 3.90784H22.3813C13.4286 3.90784 6.2168 11.1197 6.2168 20.0723V26.9999C6.2168 33.2526 9.80495 38.9368 15.4536 41.6013V49.346C15.4536 49.7368 15.8089 50.092 16.2707 50.092C16.4484 50.092 16.6615 50.021 16.8036 49.8789L23.4826 43.1644H31.6181C40.5707 43.1644 47.7826 35.9526 47.7826 26.9999V20.0723C47.7826 11.1197 40.5707 3.90784 31.6181 3.90784ZM37.6931 34.2118L35.3839 36.521C32.8971 38.9368 26.5023 36.1657 20.8536 30.4105C15.205 24.6552 12.6826 18.1539 15.0628 15.7381L17.3721 13.4289C18.2957 12.5763 19.7523 12.6118 20.676 13.4999L24.0155 16.9815C24.8681 17.9052 24.8681 19.2907 23.9444 20.2144C23.6957 20.4631 23.4115 20.6052 23.0918 20.7473C21.9194 21.1026 21.3155 22.2394 21.5997 23.4118C22.1681 25.9697 25.401 29.167 27.8523 29.8065C28.9892 30.0907 30.1615 29.4513 30.5523 28.3499C30.9431 27.2131 32.2221 26.5736 33.43 26.9644C33.7852 27.071 34.0694 27.3197 34.3536 27.5328L37.6931 31.0144C38.5457 31.867 38.5457 33.2881 37.6931 34.2118ZM29.0602 14.8855C28.8115 14.8855 28.5984 14.8855 28.3852 14.9565C27.9944 15.0276 27.5681 14.7078 27.5326 14.246C27.4971 13.7842 27.7813 13.4289 28.2076 13.3934C28.4918 13.3223 28.776 13.3223 29.0602 13.3223C33.3234 13.3223 36.7339 16.8039 36.805 20.996C36.805 21.2802 36.805 21.5644 36.7339 21.8486C36.6628 22.2394 36.3431 22.5947 35.8813 22.5236C35.4194 22.4526 35.1352 22.1328 35.2063 21.671C35.2063 21.4223 35.2773 21.2092 35.2773 20.996C35.2418 17.6565 32.4707 14.8855 29.0602 14.8855ZM33.6786 21.067C33.6076 21.4578 33.2878 21.8131 32.826 21.742C32.4707 21.671 32.151 21.3868 32.151 21.067C32.151 19.3973 30.7655 18.0118 29.0957 18.0118C28.705 18.0828 28.2786 17.7276 28.2431 17.3013C28.1721 16.9105 28.5273 16.4842 28.9181 16.4486H29.0247C31.6892 16.4486 33.6786 18.5092 33.6786 21.067ZM39.576 23.5184C39.505 23.9092 39.1142 24.1934 38.7234 24.1578C38.3326 24.1223 38.0484 23.696 38.0839 23.3052C38.0839 23.2342 38.0839 23.2342 38.0839 23.1986C38.2615 22.5236 38.3326 21.8131 38.3326 21.067C38.3326 15.9868 34.176 11.8302 29.0957 11.8302C28.8471 11.8302 28.6339 11.8302 28.4207 11.8302C28.03 11.9013 27.6036 11.546 27.6036 11.1197C27.5326 10.7289 27.8878 10.3026 28.2786 10.3026C28.5628 10.3026 28.8471 10.2315 29.0957 10.2315C35.0286 10.2315 39.8957 15.0631 39.8957 21.0315C39.8602 21.8486 39.7536 22.7368 39.576 23.5184Z" fill="#E50046"/>
</svg>
