<svg width="23" height="17" viewBox="0 0 23 17" fill="none" xmlns="http://www.w3.org/2000/svg">
<path d="M19.2261 0H3.77392C2.77398 0.00341843 1.81591 0.434613 1.10884 1.19945C0.401783 1.96429 0.0031602 3.00065 0 4.08229V12.9166C0.00289693 13.9985 0.401401 15.0351 1.10849 15.8002C1.81558 16.5652 2.77381 16.9966 3.77392 17H19.2261C20.2262 16.9966 21.1844 16.5652 21.8915 15.8002C22.5986 15.0351 22.9971 13.9985 23 12.9166V4.08229C22.9968 3.00065 22.5982 1.96429 21.8912 1.19945C21.1841 0.434613 20.226 0.00341843 19.2261 0ZM12.0557 10.2624L9.23356 12.0276V4.97458L12.0557 6.73432L14.8779 8.49622L12.0557 10.2624Z" fill="#FFFFFE"/>
</svg>
