<?xml version="1.0" encoding="UTF-8"?>
<svg id="Layer_1" data-name="Layer 1" xmlns="http://www.w3.org/2000/svg" viewBox="0 0 111 111">
  <defs>
    <style>
      .cls-1 {
        fill: #e50046;
      }

      .cls-2 {
        fill: #fff;
      }
    </style>
  </defs>
  <g>
    <rect class="cls-1" x="5" y="5" width="101" height="101" rx="24.5" ry="24.5"/>
    <path class="cls-2" d="M81.5,111H29.5c-16.27,0-29.5-13.23-29.5-29.5V29.5C0,13.23,13.23,0,29.5,0h52c16.27,0,29.5,13.23,29.5,29.5v52c0,16.27-13.23,29.5-29.5,29.5ZM29.5,10c-10.75,0-19.5,8.75-19.5,19.5v52c0,10.75,8.75,19.5,19.5,19.5h52c10.75,0,19.5-8.75,19.5-19.5V29.5c0-10.75-8.75-19.5-19.5-19.5H29.5Z"/>
  </g>
  <path class="cls-2" d="M85.85,71.58l2.54-16.3h-15.65v-10.59c0-4.46,2.18-8.81,9.17-8.81h7.21v-13.88c-4.2-.68-8.45-1.04-12.7-1.09-12.88,0-21.29,7.82-21.29,21.95v12.43h-14.28v16.3h14.28v39.42h17.6v-39.42h13.11Z"/>
</svg>