<?xml version="1.0" encoding="UTF-8"?>
<svg id="Layer_1" data-name="Layer 1" xmlns="http://www.w3.org/2000/svg" viewBox="0 0 110.35 110.73">
  <defs>
    <style>
      .cls-1 {
        fill: #fff;
      }

      .cls-2 {
        fill: #e60542;
      }
    </style>
  </defs>
  <rect class="cls-2" x="9.71" y="7.89" width="91.73" height="96.55" rx="7" ry="7"/>
  <path class="cls-1" d="M36.79,55.36c0-10.19,8.23-18.46,18.39-18.46s18.39,8.26,18.39,18.46-8.24,18.46-18.39,18.46-18.39-8.26-18.39-18.46ZM26.84,55.36c0,15.7,12.68,28.43,28.33,28.43s28.33-12.73,28.33-28.43-12.68-28.43-28.33-28.43-28.33,12.73-28.33,28.43ZM78.01,25.81c0,1.31.39,2.6,1.11,3.69.73,1.09,1.76,1.94,2.97,2.45,1.21.5,2.54.64,3.83.38,1.28-.26,2.46-.89,3.39-1.82.93-.93,1.56-2.11,1.81-3.4.26-1.29.13-2.62-.38-3.84-.5-1.21-1.35-2.25-2.44-2.98-1.09-.73-2.37-1.12-3.68-1.12h0c-1.75,0-3.44.7-4.68,1.95s-1.94,2.93-1.94,4.7h0ZM32.89,100.43c-5.38-.25-8.3-1.15-10.25-1.9-2.58-1.01-4.41-2.2-6.35-4.14-1.93-1.94-3.13-3.78-4.13-6.36-.76-1.95-1.65-4.88-1.9-10.28-.27-5.84-.32-7.59-.32-22.37s.06-16.53.32-22.37c.25-5.4,1.15-8.33,1.9-10.28,1-2.58,2.2-4.43,4.13-6.37,1.93-1.94,3.77-3.14,6.35-4.14,1.94-.76,4.87-1.66,10.25-1.9,5.82-.27,7.56-.32,22.29-.32s16.48.06,22.3.32c5.38.25,8.3,1.15,10.25,1.9,2.58,1,4.41,2.2,6.35,4.14,1.93,1.94,3.12,3.78,4.13,6.37.76,1.95,1.65,4.88,1.9,10.28.27,5.84.32,7.59.32,22.37s-.05,16.53-.32,22.37c-.24,5.4-1.15,8.33-1.9,10.28-1,2.58-2.2,4.43-4.13,6.36-1.93,1.93-3.77,3.14-6.35,4.14-1.94.76-4.87,1.66-10.25,1.9-5.82.27-7.56.32-22.3.32s-16.48-.05-22.29-.32h0ZM32.43.34c-5.87.27-9.89,1.2-13.39,2.57-3.63,1.41-6.7,3.31-9.77,6.39-3.07,3.08-4.96,6.16-6.36,9.81-1.36,3.52-2.3,7.54-2.56,13.44-.27,5.9-.33,7.79-.33,22.83s.06,16.92.33,22.83c.27,5.89,1.2,9.92,2.56,13.44,1.41,3.64,3.29,6.73,6.36,9.81,3.07,3.07,6.14,4.97,9.77,6.39,3.51,1.37,7.52,2.3,13.39,2.57,5.89.27,7.76.34,22.75.34s16.87-.06,22.75-.34c5.87-.27,9.89-1.2,13.39-2.57,3.63-1.42,6.7-3.31,9.77-6.39,3.07-3.08,4.95-6.17,6.36-9.81,1.36-3.52,2.3-7.54,2.56-13.44.27-5.91.33-7.79.33-22.83s-.06-16.92-.33-22.83c-.27-5.89-1.2-9.92-2.56-13.44-1.41-3.64-3.3-6.73-6.36-9.81-3.07-3.08-6.15-4.97-9.77-6.39-3.51-1.37-7.52-2.31-13.39-2.57-5.88-.27-7.76-.34-22.75-.34s-16.87.06-22.75.34Z"/>
  <path class="cls-1" d="M36.79,55.36c0-10.19,8.23-18.46,18.39-18.46s18.39,8.26,18.39,18.46-8.24,18.46-18.39,18.46-18.39-8.26-18.39-18.46ZM26.84,55.36c0,15.7,12.68,28.43,28.33,28.43s28.33-12.73,28.33-28.43-12.68-28.43-28.33-28.43-28.33,12.73-28.33,28.43ZM78.01,25.81c0,1.31.39,2.6,1.11,3.69.73,1.09,1.76,1.94,2.97,2.45,1.21.5,2.54.64,3.83.38,1.28-.26,2.46-.89,3.39-1.82.93-.93,1.56-2.11,1.81-3.4.26-1.29.13-2.62-.38-3.84-.5-1.21-1.35-2.25-2.44-2.98-1.09-.73-2.37-1.12-3.68-1.12h0c-1.75,0-3.44.7-4.68,1.95s-1.94,2.93-1.94,4.7h0ZM32.89,100.43c-5.38-.25-8.3-1.15-10.25-1.9-2.58-1.01-4.41-2.2-6.35-4.14-1.93-1.94-3.13-3.78-4.13-6.36-.76-1.95-1.65-4.88-1.9-10.28-.27-5.84-.32-7.59-.32-22.37s.06-16.53.32-22.37c.25-5.4,1.15-8.33,1.9-10.28,1-2.58,2.2-4.43,4.13-6.37,1.93-1.94,3.77-3.14,6.35-4.14,1.94-.76,4.87-1.66,10.25-1.9,5.82-.27,7.56-.32,22.29-.32s16.48.06,22.3.32c5.38.25,8.3,1.15,10.25,1.9,2.58,1,4.41,2.2,6.35,4.14,1.93,1.94,3.12,3.78,4.13,6.37.76,1.95,1.65,4.88,1.9,10.28.27,5.84.32,7.59.32,22.37s-.05,16.53-.32,22.37c-.24,5.4-1.15,8.33-1.9,10.28-1,2.58-2.2,4.43-4.13,6.36-1.93,1.93-3.77,3.14-6.35,4.14-1.94.76-4.87,1.66-10.25,1.9-5.82.27-7.56.32-22.3.32s-16.48-.05-22.29-.32h0ZM32.43.34c-5.87.27-9.89,1.2-13.39,2.57-3.63,1.41-6.7,3.31-9.77,6.39-3.07,3.08-4.96,6.16-6.36,9.81-1.36,3.52-2.3,7.54-2.56,13.44-.27,5.9-.33,7.79-.33,22.83s.06,16.92.33,22.83c.27,5.89,1.2,9.92,2.56,13.44,1.41,3.64,3.29,6.73,6.36,9.81,3.07,3.07,6.14,4.97,9.77,6.39,3.51,1.37,7.52,2.3,13.39,2.57,5.89.27,7.76.34,22.75.34s16.87-.06,22.75-.34c5.87-.27,9.89-1.2,13.39-2.57,3.63-1.42,6.7-3.31,9.77-6.39,3.07-3.08,4.95-6.17,6.36-9.81,1.36-3.52,2.3-7.54,2.56-13.44.27-5.91.33-7.79.33-22.83s-.06-16.92-.33-22.83c-.27-5.89-1.2-9.92-2.56-13.44-1.41-3.64-3.3-6.73-6.36-9.81-3.07-3.08-6.15-4.97-9.77-6.39-3.51-1.37-7.52-2.31-13.39-2.57-5.88-.27-7.76-.34-22.75-.34s-16.87.06-22.75.34Z"/>
</svg>