<svg width="192" height="200" viewBox="0 0 192 200" fill="none" xmlns="http://www.w3.org/2000/svg">
<g clip-path="url(#clip0_1745_217)">
<path d="M81.0477 199.279C125.809 199.279 162.095 161.592 162.095 115.102C162.095 68.6128 125.809 30.9258 81.0477 30.9258C36.2863 30.9258 0 68.6128 0 115.102C0 161.592 36.2863 199.279 81.0477 199.279Z" fill="url(#paint0_linear_1745_217)"/>
<path d="M118.16 77.7823C117.968 77.7823 117.777 77.7057 117.644 77.5527C117.349 77.2465 117.349 76.772 117.644 76.4658L190.747 0.555541C191.042 0.24939 191.499 0.24939 191.794 0.555541C192.089 0.861693 192.089 1.33623 191.794 1.64238L118.69 77.568C118.543 77.7211 118.351 77.7976 118.175 77.7976L118.16 77.7823Z" fill="url(#paint1_linear_1745_217)"/>
</g>
<defs>
<linearGradient id="paint0_linear_1745_217" x1="276.187" y1="-71.7422" x2="-234.298" y2="381.373" gradientUnits="userSpaceOnUse">
<stop offset="0.15" stop-color="#1B1C20"/>
<stop offset="0.2" stop-color="#1F1B20"/>
<stop offset="0.26" stop-color="#2E1923"/>
<stop offset="0.32" stop-color="#461627"/>
<stop offset="0.39" stop-color="#67112C"/>
<stop offset="0.46" stop-color="#920B34"/>
<stop offset="0.54" stop-color="#C6043C"/>
<stop offset="0.58" stop-color="#E60042"/>
</linearGradient>
<linearGradient id="paint1_linear_1745_217" x1="193.224" y1="2.17815" x2="113.513" y2="72.9354" gradientUnits="userSpaceOnUse">
<stop stop-color="#E60042" stop-opacity="0"/>
<stop offset="0.09" stop-color="#E60042" stop-opacity="0.04"/>
<stop offset="0.24" stop-color="#E60042" stop-opacity="0.14"/>
<stop offset="0.42" stop-color="#E60042" stop-opacity="0.3"/>
<stop offset="0.63" stop-color="#E60042" stop-opacity="0.53"/>
<stop offset="0.86" stop-color="#E60042" stop-opacity="0.82"/>
<stop offset="1" stop-color="#E60042"/>
</linearGradient>
<clipPath id="clip0_1745_217">
<rect width="192" height="198.953" fill="white" transform="translate(0 0.325928)"/>
</clipPath>
</defs>
</svg>
