<svg width="26" height="26" viewBox="0 0 26 26" fill="none" xmlns="http://www.w3.org/2000/svg">
<g opacity="0.6">
<path d="M19.1281 18.0448L14.5315 22.6414C14.3305 22.8426 14.0918 23.0022 13.829 23.1111C13.5663 23.22 13.2846 23.2761 13.0002 23.2761C12.7158 23.2761 12.4342 23.22 12.1714 23.1111C11.9087 23.0022 11.6699 22.8426 11.4689 22.6414L6.87126 18.0448C5.65925 16.8327 4.83388 15.2884 4.49951 13.6073C4.16514 11.9261 4.33679 10.1836 4.99277 8.59997C5.64874 7.01637 6.75957 5.66285 8.18478 4.71057C9.61 3.75828 11.2856 3.25 12.9997 3.25C14.7138 3.25 16.3894 3.75828 17.8146 4.71057C19.2398 5.66285 20.3506 7.01637 21.0066 8.59997C21.6626 10.1836 21.8342 11.9261 21.4999 13.6073C21.1655 15.2884 20.3401 16.8327 19.1281 18.0448V18.0448Z" stroke="white" stroke-width="2" stroke-linecap="round" stroke-linejoin="round"/>
<path d="M15.2981 14.2151C15.9076 13.6056 16.25 12.7789 16.25 11.917C16.25 11.055 15.9076 10.2284 15.2981 9.61889C14.6886 9.0094 13.862 8.66699 13 8.66699C12.138 8.66699 11.3114 9.0094 10.7019 9.61889C10.0924 10.2284 9.75 11.055 9.75 11.917C9.75 12.7789 10.0924 13.6056 10.7019 14.2151C11.3114 14.8246 12.138 15.167 13 15.167C13.862 15.167 14.6886 14.8246 15.2981 14.2151Z" stroke="white" stroke-width="2" stroke-linecap="round" stroke-linejoin="round"/>
</g>
</svg>
