<svg width="17" height="30" viewBox="0 0 17 30" fill="none" xmlns="http://www.w3.org/2000/svg">
<path fill-rule="evenodd" clip-rule="evenodd" d="M0 2.40691L16.0719 0L15.2149 29.3823H1.07123L0 2.40691ZM11.1841 15.4353H13.0716V14.897C13.0718 14.8213 13.104 14.7487 13.1612 14.6952C13.2184 14.6417 13.2959 14.6116 13.3768 14.6115H13.9846C14.0654 14.6117 14.1429 14.6418 14.2 14.6953C14.2572 14.7488 14.2894 14.8213 14.2896 14.897V17.9056C14.2894 17.9813 14.2572 18.0538 14.2 18.1073C14.1429 18.1608 14.0654 18.1909 13.9846 18.1911H13.3768C13.2959 18.191 13.2184 18.1609 13.1612 18.1074C13.104 18.0539 13.0718 17.9813 13.0716 17.9056V16.0537H11.1841C11.1403 16.0535 11.0983 16.0372 11.0673 16.0082C11.0363 15.9792 11.0188 15.9398 11.0187 15.8988V15.5904C11.0188 15.5493 11.0363 15.5099 11.0673 15.4809C11.0983 15.4518 11.1403 15.4354 11.1841 15.4353ZM9.06126 8.46864C9.06126 8.56941 9.02934 8.66792 8.96952 8.7517C8.9097 8.83548 8.82468 8.90078 8.72521 8.93933C8.62574 8.97788 8.5163 8.98796 8.41071 8.96828C8.30512 8.94861 8.20814 8.90007 8.13203 8.8288C8.05592 8.75753 8.0041 8.66674 7.98313 8.5679C7.96215 8.46906 7.97296 8.36662 8.01419 8.27354C8.05542 8.18045 8.12522 8.1009 8.21475 8.04495C8.30429 7.989 8.40954 7.95915 8.5172 7.9592C8.66152 7.95925 8.7999 8.01295 8.90192 8.10849C9.00395 8.20402 9.06126 8.33356 9.06126 8.46864Z" fill="#E50046"/>
</svg>
