<svg width="155" height="155" viewBox="0 0 155 155" fill="none" xmlns="http://www.w3.org/2000/svg">
<path d="M45 71.7223C45 54.7549 58.7549 41 75.7223 41H81.6727C98.6387 41 112.602 54.3478 113.367 71.2965C114.238 90.6184 98.136 106.416 78.8343 105.175L73.9126 104.859C57.6531 103.813 45 90.3208 45 74.0277V71.7223Z" fill="url(#paint0_linear_1838_1041)"/>
<path d="M61.2943 115.809L61.4239 97.6846L74.0923 102.974L61.2943 115.809Z" fill="#E50046"/>
<path d="M59.4106 108.776C59.4106 107.478 59.4106 106.18 59.4106 104.882C59.4199 104.829 59.418 104.774 59.4051 104.722C59.3923 104.67 59.3687 104.62 59.3359 104.577C59.3031 104.534 59.2617 104.499 59.2144 104.472C59.167 104.446 59.1146 104.429 59.0605 104.423C55.8105 103.509 52.8108 101.881 50.2848 99.6598C48.4444 98.0024 46.9121 96.0381 45.7575 93.8564C44.1302 90.7048 43.0472 87.3059 42.5534 83.8004C41.9416 79.4031 41.7291 74.9603 41.9185 70.5255C41.9601 68.4579 42.0669 66.4138 42.3042 64.3462C42.6827 60.4172 43.6839 56.5716 45.271 52.9509C47.2307 48.4991 50.786 44.9232 55.2512 42.9125C58.293 41.5346 61.493 40.5286 64.7805 39.9169C68.0044 39.3124 71.2686 38.9413 74.5471 38.8067C77.5023 38.7033 80.4609 38.7464 83.4118 38.9359C87.6352 39.1124 91.8204 39.8049 95.8723 40.9977C98.8764 41.8549 101.734 43.1517 104.351 44.845C106.901 46.5779 108.964 48.9247 110.344 51.6646C111.967 54.8646 113.071 58.2979 113.614 61.8381C113.966 63.9399 114.198 66.0598 114.308 68.1877C114.462 70.8251 114.444 73.4742 114.343 76.0998C114.243 78.7254 114.017 81.2746 113.691 83.8474C113.278 87.7088 112.079 91.4474 110.166 94.8373C107.676 99.1256 103.687 102.364 98.9518 103.942C95.7137 105.064 92.3703 105.863 88.9715 106.327C86.4854 106.667 83.9933 106.914 81.4893 107.014C79.5728 107.102 77.6563 107.078 75.7397 107.049C74.6539 107.049 73.574 106.943 72.4941 106.849C72.3881 106.83 72.2785 106.841 72.1792 106.883C72.08 106.925 71.9954 106.995 71.9363 107.084C69.7528 109.681 67.4862 112.206 65.2018 114.72C64.7857 115.179 64.3039 115.575 63.7718 115.895C63.4225 116.122 63.0242 116.264 62.6091 116.311C62.1941 116.357 61.7738 116.306 61.3822 116.162C60.9906 116.018 60.6388 115.785 60.3551 115.481C60.0713 115.178 59.8637 114.812 59.7488 114.415C59.5227 113.708 59.4106 112.971 59.4166 112.23C59.4106 111.067 59.4106 109.921 59.4106 108.776ZM62.0511 113.704L62.3299 113.446L67.2844 108.001C69.1911 105.906 71.0958 103.809 72.9984 101.71C73.092 101.582 73.2181 101.481 73.3641 101.417C73.51 101.353 73.6705 101.328 73.8291 101.346C74.4759 101.41 75.1227 101.434 75.7753 101.44C78.0301 101.44 80.2848 101.44 82.5396 101.281C84.5867 101.122 86.6278 100.876 88.6571 100.558C90.8419 100.182 93.0048 99.6898 95.1365 99.0841C99.8833 97.8212 103.556 95.1193 105.864 90.7433C107.227 88.0528 108.082 85.1385 108.386 82.144C108.747 79.3215 108.963 76.4827 109.033 73.6386C109.138 70.0658 108.892 66.4914 108.297 62.9658C107.885 60.4116 107.143 57.9203 106.09 55.5531C104.749 52.6161 102.85 50.1844 99.9249 48.6219C95.4391 46.2254 90.5855 45.1563 85.5835 44.6101C84.1654 44.4574 82.7473 44.3751 81.3232 44.3223C78.4073 44.1734 75.4853 44.1891 72.5712 44.3693C70.4755 44.5232 68.3911 44.8018 66.3291 45.2033C63.2968 45.7505 60.3633 46.7403 57.6246 48.1403C56.0369 48.9345 54.5964 49.989 53.3643 51.2593C51.3675 53.4686 49.9028 56.0975 49.0803 58.9481C48.1046 62.2681 47.572 65.7001 47.4961 69.1569C47.3052 72.6136 47.3488 76.0791 47.6266 79.5301C47.7995 81.5838 48.1468 83.6194 48.665 85.6154C49.4359 88.7258 50.9315 91.6145 53.0321 94.0502C55.2999 96.5353 58.2309 98.3353 61.4874 99.2427C61.8968 99.3661 62.0807 99.507 62.0807 99.9652C62.0451 101.657 62.0807 103.349 62.0807 105.04L62.0511 113.704Z" fill="white"/>
<path d="M57.8991 61.2397C57.8576 59.9533 58.5637 59.0194 59.4181 58.1794C60.545 57.1108 61.7865 56.1673 63.1206 55.3659C63.729 54.9945 64.4523 54.853 65.1576 54.9674C65.8629 55.0817 66.5028 55.4444 66.9596 55.9885C68.5738 57.6681 70.0185 59.4997 71.2733 61.457C71.8947 62.3375 72.3639 63.3142 72.6618 64.347C72.7808 64.75 72.7885 65.1773 72.6842 65.5843C72.5798 65.9913 72.3672 66.3632 72.0684 66.6613C71.3839 67.3264 70.6544 67.9446 69.8849 68.5115C69.4971 68.8174 69.2089 69.2294 69.0559 69.6963C68.9029 70.1631 68.892 70.6642 69.0245 71.1371C69.4997 73.3579 70.5766 75.4087 72.1396 77.0697C74.0389 79.3651 76.486 81.1557 79.2599 82.2798C79.9415 82.6268 80.7224 82.7325 81.4731 82.5794C81.8842 82.4684 82.2496 82.232 82.5174 81.9039C82.9327 81.3811 83.3837 80.876 83.7575 80.318C84.2423 79.6219 84.9826 79.1409 85.8206 78.9774C86.6585 78.8139 87.5279 78.9809 88.2432 79.4428C90.2546 80.598 92.1535 81.9351 93.9157 83.437C94.3311 83.7894 94.7642 84.1301 95.1796 84.4884C95.671 84.8594 96.0259 85.3798 96.1899 85.9697C96.3539 86.5597 96.3179 87.1865 96.0874 87.7543C95.7208 88.7089 95.1864 89.5919 94.5091 90.3622C93.6673 91.5204 92.5951 92.4959 91.3584 93.2287C90.7672 93.5723 90.1029 93.7742 89.4187 93.8181C88.7346 93.8619 88.0495 93.7466 87.4185 93.4813C82.6178 91.5679 78.1322 88.9567 74.1095 85.7337C70.175 82.5272 66.7366 78.7672 63.9039 74.5733C61.5203 71.1015 59.624 67.3254 58.267 63.3484C58.1225 62.8674 58.0037 62.3792 57.911 61.8858C57.8846 61.6714 57.8806 61.4549 57.8991 61.2397Z" fill="white"/>
<path d="M78.3842 54.9892C82.4008 55.0627 86.2638 56.5294 89.3 59.1335C92.3361 61.7376 94.3527 65.314 94.9981 69.2391C95.258 70.6662 95.3969 72.1123 95.4135 73.5623C95.4135 73.903 95.3245 74.1497 94.9566 74.1849C94.5887 74.2202 94.4938 73.9088 94.4938 73.5975C94.5489 70.6646 93.9407 67.7565 92.7137 65.0863C91.6804 62.8922 90.1497 60.9638 88.2407 59.4509C86.3317 57.938 84.0958 56.8815 81.707 56.3637C80.444 56.0742 79.1525 55.9245 77.8561 55.9173C77.7299 55.9194 77.604 55.9036 77.4823 55.8703C77.3787 55.8413 77.2905 55.7737 77.2363 55.6817C77.182 55.5897 77.166 55.4804 77.1916 55.3769C77.1923 55.3278 77.203 55.2793 77.2228 55.2343C77.2427 55.1893 77.2714 55.1487 77.3073 55.1148C77.3432 55.0809 77.3856 55.0544 77.4319 55.0369C77.4783 55.0193 77.5277 55.0111 77.5773 55.0127C77.8443 54.9774 78.1172 54.9892 78.3842 54.9892Z" fill="white"/>
<path d="M89.838 70.9194C89.8181 69.2876 89.4121 67.6831 88.6527 66.2346C87.8933 64.7861 86.8015 63.534 85.465 62.5786C83.9051 61.4939 82.0917 60.8207 80.196 60.6226C79.8756 60.5815 79.5552 60.5638 79.2288 60.5286C78.9025 60.4934 78.7067 60.3583 78.7364 60.0293C78.766 59.7004 78.9737 59.5829 79.3297 59.6064C84.5868 59.9236 89.0607 62.8664 90.4373 68.3467C90.6891 69.4034 90.8146 70.4857 90.8111 71.5714C90.8111 71.6713 90.8111 71.7711 90.8111 71.8651C90.8111 72.1588 90.6212 72.3527 90.3305 72.3468C90.266 72.3446 90.2027 72.3295 90.1443 72.3023C90.0859 72.2751 90.0338 72.2364 89.991 72.1886C89.9482 72.1407 89.9158 72.0848 89.8956 72.0241C89.8754 71.9635 89.8679 71.8994 89.8736 71.8358C89.8261 71.5597 89.838 71.2777 89.838 70.9194Z" fill="white"/>
<path d="M80.6275 64.3759C83.5112 64.5697 85.5227 65.9677 86.0745 69.0045C86.1415 69.3935 86.189 69.7856 86.2169 70.1792C86.2169 70.4964 86.1457 70.7666 85.7957 70.7666C85.4456 70.7666 85.3269 70.5317 85.315 70.1792C85.3118 69.0151 84.9495 67.8798 84.2767 66.9251C83.5696 66.0604 82.5545 65.497 81.4404 65.3509C81.1914 65.3048 80.9397 65.2734 80.6869 65.2569C80.2715 65.2569 80.0401 65.0514 80.0935 64.7342C80.1469 64.417 80.3961 64.3582 80.6275 64.3759Z" fill="white"/>
<defs>
<linearGradient id="paint0_linear_1838_1041" x1="45" y1="72" x2="112" y2="72" gradientUnits="userSpaceOnUse">
<stop stop-color="#E50046"/>
</linearGradient>
</defs>
</svg>
