<svg width="20" height="22" viewBox="0 0 20 22" fill="none" xmlns="http://www.w3.org/2000/svg">
<path d="M5.09876 19.4747C5.09876 19.123 5.09876 18.7712 5.09876 18.4195C5.10126 18.4051 5.10076 18.3904 5.09727 18.3762C5.09379 18.362 5.08741 18.3487 5.07851 18.3371C5.06962 18.3254 5.05841 18.3157 5.04558 18.3085C5.03274 18.3014 5.01856 18.2969 5.0039 18.2953C4.12324 18.0477 3.31041 17.6064 2.62597 17.0045C2.12727 16.5554 1.71206 16.0232 1.39922 15.432C0.958263 14.578 0.664806 13.657 0.531004 12.7072C0.365224 11.5156 0.307648 10.3118 0.358969 9.11009C0.370224 8.54984 0.399164 7.99595 0.463476 7.4357C0.566042 6.37106 0.837331 5.32905 1.26738 4.34796C1.7984 3.14166 2.76175 2.1727 3.97169 1.62787C4.79591 1.25449 5.663 0.98191 6.55382 0.816146C7.42741 0.652341 8.3119 0.551803 9.20026 0.515329C10.001 0.487296 10.8027 0.498982 11.6023 0.550345C12.7467 0.598164 13.8808 0.785806 14.9787 1.109C15.7927 1.3413 16.5671 1.69268 17.2762 2.15152C17.9672 2.62106 18.526 3.25699 18.9001 3.99939C19.3399 4.86649 19.6389 5.79681 19.786 6.75608C19.8816 7.3256 19.9444 7.90005 19.9741 8.47662C20.0159 9.19126 20.0111 9.90908 19.9838 10.6205C19.9564 11.332 19.8953 12.0228 19.8069 12.7199C19.6951 13.7662 19.3702 14.7793 18.8519 15.6978C18.1771 16.8598 17.0963 17.7373 15.8131 18.1648C14.9357 18.469 14.0298 18.6855 13.1088 18.811C12.4351 18.9033 11.7599 18.9702 11.0814 18.9972C10.5621 19.0211 10.0427 19.0148 9.52342 19.0068C9.2292 19.0068 8.93658 18.9781 8.64396 18.9527C8.61523 18.9473 8.58554 18.9505 8.55864 18.9618C8.53174 18.9732 8.50884 18.9921 8.49282 19.0163C7.90115 19.7198 7.28697 20.4042 6.66797 21.0855C6.55522 21.2097 6.42467 21.317 6.28049 21.4038C6.18585 21.4652 6.07793 21.5038 5.96546 21.5164C5.85298 21.529 5.73909 21.5152 5.63299 21.4761C5.52689 21.4371 5.43155 21.3739 5.35467 21.2917C5.27779 21.2094 5.22152 21.1104 5.1904 21.0027C5.12914 20.8112 5.09875 20.6114 5.10037 20.4106C5.09876 20.0955 5.09876 19.7851 5.09876 19.4747ZM5.81423 20.8101L5.8898 20.7401L7.23231 19.2646C7.74895 18.697 8.26505 18.1288 8.78062 17.56C8.80596 17.5253 8.84015 17.4979 8.8797 17.4806C8.91924 17.4632 8.96273 17.4566 9.00571 17.4613C9.18096 17.4788 9.35621 17.4852 9.53307 17.4868C10.144 17.4868 10.755 17.4868 11.366 17.4438C11.9207 17.4009 12.4737 17.334 13.0236 17.2481C13.6156 17.146 14.2017 17.0127 14.7793 16.8486C16.0656 16.5064 17.0608 15.7742 17.6862 14.5885C18.0555 13.8594 18.287 13.0697 18.3695 12.2583C18.4673 11.4935 18.5258 10.7243 18.5448 9.95365C18.5733 8.98554 18.5065 8.01698 18.3454 7.06167C18.2337 6.36955 18.0327 5.69448 17.7473 5.05304C17.384 4.25723 16.8695 3.5983 16.0768 3.17493C14.8613 2.52555 13.5461 2.23587 12.1908 2.08785C11.8065 2.04647 11.4222 2.02419 11.0364 2.00986C10.2463 1.96954 9.45447 1.97379 8.66486 2.0226C8.09699 2.06432 7.53217 2.13979 6.97345 2.24861C6.15179 2.39688 5.35692 2.66507 4.61481 3.04442C4.18459 3.25962 3.79427 3.54537 3.46041 3.88957C2.91934 4.48824 2.52244 5.20058 2.29958 5.973C2.03521 6.8726 1.89089 7.80257 1.8703 8.73924C1.81857 9.67591 1.83039 10.615 1.90567 11.55C1.95251 12.1065 2.04663 12.6581 2.18704 13.199C2.39593 14.0418 2.80119 14.8245 3.37038 15.4845C3.98488 16.1579 4.7791 16.6456 5.66149 16.8915C5.77243 16.925 5.82227 16.9632 5.82227 17.0873C5.81262 17.5457 5.82227 18.0041 5.82227 18.4625L5.81423 20.8101Z" fill="white"/>
<path d="M4.68864 6.59387C4.67738 6.2453 4.86871 5.99224 5.10024 5.76463C5.40559 5.47507 5.74201 5.21942 6.1035 5.00225C6.26834 4.90161 6.46434 4.86326 6.65546 4.89426C6.84658 4.92526 7.01997 5.02351 7.14375 5.17096C7.58112 5.62609 7.9726 6.12237 8.31262 6.65276C8.48099 6.89134 8.60813 7.15598 8.68884 7.43584C8.7211 7.54505 8.7232 7.66082 8.69492 7.77111C8.66664 7.8814 8.60903 7.98217 8.52806 8.06294C8.34258 8.24318 8.1449 8.41068 7.93639 8.5643C7.83133 8.64718 7.75322 8.75882 7.71177 8.88532C7.67031 9.01182 7.66736 9.1476 7.70326 9.27575C7.83203 9.87751 8.12382 10.4332 8.54736 10.8833C9.062 11.5053 9.7251 11.9905 10.4767 12.2951C10.6614 12.3891 10.873 12.4177 11.0764 12.3762C11.1878 12.3461 11.2868 12.2821 11.3594 12.1932C11.4719 12.0515 11.5941 11.9147 11.6954 11.7635C11.8268 11.5748 12.0274 11.4445 12.2545 11.4002C12.4815 11.3559 12.7171 11.4011 12.9109 11.5263C13.4559 11.8393 13.9705 12.2016 14.448 12.6086C14.5605 12.7041 14.6779 12.7964 14.7904 12.8935C14.9236 12.9941 15.0198 13.1351 15.0642 13.2949C15.1087 13.4548 15.0989 13.6246 15.0364 13.7785C14.9371 14.0371 14.7923 14.2764 14.6088 14.4851C14.3807 14.799 14.0901 15.0633 13.755 15.2618C13.5948 15.355 13.4148 15.4097 13.2294 15.4215C13.0441 15.4334 12.8584 15.4022 12.6874 15.3303C11.3866 14.8118 10.1712 14.1043 9.08115 13.2309C8.01501 12.3621 7.0833 11.3432 6.31573 10.2069C5.66986 9.2661 5.15603 8.24289 4.78832 7.16526C4.74917 7.03492 4.71697 6.90263 4.69186 6.76895C4.68471 6.71085 4.68363 6.65218 4.68864 6.59387Z" fill="white"/>
<path d="M10.2405 4.90041C11.3288 4.92033 12.3756 5.31775 13.1983 6.02338C14.021 6.72902 14.5674 7.6981 14.7423 8.76169C14.8127 9.14838 14.8504 9.54022 14.8548 9.93312C14.8548 10.0254 14.8307 10.0923 14.731 10.1018C14.6314 10.1114 14.6056 10.027 14.6056 9.94267C14.6206 9.14793 14.4558 8.35995 14.1233 7.63641C13.8433 7.04189 13.4285 6.51933 12.9112 6.10938C12.394 5.69944 11.7881 5.41317 11.1408 5.27285C10.7986 5.19442 10.4486 5.15385 10.0974 5.15189C10.0632 5.15247 10.029 5.14818 9.99607 5.13915C9.96799 5.13132 9.94409 5.113 9.92939 5.08806C9.9147 5.06312 9.91036 5.03351 9.91728 5.00546C9.91749 4.99215 9.92037 4.97902 9.92576 4.96683C9.93114 4.95464 9.93892 4.94363 9.94865 4.93444C9.95838 4.92526 9.96985 4.91808 9.98241 4.91333C9.99497 4.90858 10.0084 4.90635 10.0218 4.90678C10.0941 4.89723 10.1681 4.90041 10.2405 4.90041Z" fill="white"/>
<path d="M13.344 9.21689C13.3386 8.77471 13.2286 8.33994 13.0228 7.94744C12.817 7.55495 12.5212 7.21566 12.159 6.95678C11.7363 6.66286 11.245 6.48045 10.7313 6.42677C10.6445 6.41563 10.5576 6.41085 10.4692 6.4013C10.3808 6.39175 10.3277 6.35515 10.3358 6.26602C10.3438 6.17689 10.4001 6.14505 10.4965 6.15142C11.9211 6.23737 13.1333 7.03477 13.5063 8.51976C13.5746 8.80609 13.6086 9.09937 13.6076 9.39356C13.6076 9.42061 13.6076 9.44767 13.6076 9.47314C13.6076 9.55272 13.5562 9.60524 13.4774 9.60365C13.4599 9.60307 13.4428 9.59897 13.4269 9.5916C13.4111 9.58423 13.397 9.57374 13.3854 9.56078C13.3738 9.54782 13.365 9.53266 13.3596 9.51622C13.3541 9.49979 13.3521 9.48242 13.3536 9.46518C13.3407 9.39037 13.344 9.31397 13.344 9.21689Z" fill="white"/>
<path d="M10.8479 7.44363C11.6293 7.49616 12.1744 7.87496 12.3239 8.69783C12.342 8.80325 12.3549 8.90949 12.3625 9.01616C12.3625 9.10211 12.3432 9.17532 12.2483 9.17532C12.1535 9.17532 12.1213 9.11165 12.1181 9.01616C12.1172 8.70073 12.019 8.39309 11.8367 8.1344C11.6451 7.90009 11.3701 7.74743 11.0682 7.70784C11.0007 7.69535 10.9325 7.68684 10.864 7.68238C10.7515 7.68238 10.6888 7.62667 10.7032 7.54072C10.7177 7.45478 10.7852 7.43886 10.8479 7.44363Z" fill="white"/>
</svg>
