<svg width="56" height="40" viewBox="0 0 56 40" fill="none" xmlns="http://www.w3.org/2000/svg">
<path d="M54.8298 6.43358C54.1858 4.00852 52.2882 2.09872 49.8788 1.45045C45.5117 0.272705 28 0.272705 28 0.272705C28 0.272705 10.4883 0.272705 6.12117 1.45045C3.71175 2.09861 1.8142 4.00852 1.1702 6.43358C0 10.8291 0 20 0 20C0 20 0 29.1709 1.1702 33.5665C1.8142 35.9915 3.71175 37.9013 6.12117 38.5496C10.4883 39.7273 28 39.7273 28 39.7273C28 39.7273 45.5117 39.7273 49.8788 38.5496C52.2882 37.9013 54.1858 35.9915 54.8298 33.5665C56 29.1709 56 20 56 20C56 20 56 10.8291 54.8298 6.43358Z" fill="#E50046"/>
<path d="M22.2725 28.3265L36.9088 20.0002L22.2725 11.6735V28.3265Z" fill="white"/>
</svg>
