<svg width="89" height="89" viewBox="0 0 89 89" fill="none" xmlns="http://www.w3.org/2000/svg">
<path d="M84.7522 23.785L84.755 23.7956C85.6276 26.9827 86.0805 32.1009 86.3009 36.6089C86.4093 38.8241 86.459 40.8276 86.4816 42.2774C86.4929 43.0017 86.4974 43.5863 86.4991 43.9884C86.4999 44.1895 86.5001 44.3447 86.5 44.4489L86.4998 44.5662L86.4997 44.5948L86.4997 44.6013L86.4996 44.6027V44.6152V44.6153V44.6167L86.4996 44.6233L86.4996 44.6519L86.4992 44.7688C86.4988 44.8726 86.4979 45.0273 86.4961 45.2276C86.4926 45.6281 86.4856 46.2103 86.4715 46.9317C86.4432 48.3756 86.3867 50.3714 86.2738 52.5792C86.0445 57.065 85.5928 62.1756 84.7509 65.3794C83.9545 68.3257 81.6253 70.6548 78.679 71.45C77.1916 71.8403 74.3683 72.1734 70.7641 72.4322C67.2232 72.6864 63.1275 72.857 59.2262 72.9711C55.329 73.0851 51.6455 73.1421 48.9351 73.1707C47.5804 73.1849 46.47 73.1921 45.6989 73.1956C45.3134 73.1974 45.0128 73.1983 44.8089 73.1987L44.5773 73.1991L44.5187 73.1992L44.5042 73.1992H44.5008H44.5C44.4998 73.1992 44.4998 73.1992 44.4998 75.6992C44.4998 73.1992 44.4998 73.1992 44.4997 73.1992H44.4989H44.4954L44.481 73.1992L44.4226 73.1991L44.1917 73.1987C43.9885 73.1983 43.6887 73.1973 43.3042 73.1955C42.5351 73.1918 41.4275 73.1844 40.0758 73.1695C37.3715 73.1399 33.6956 73.0806 29.8036 72.9621C25.9076 72.8435 21.8156 72.6662 18.2731 72.402C14.6614 72.1327 11.8298 71.7861 10.3309 71.3801L10.3273 71.3792C7.3764 70.5846 5.04365 68.2523 4.24765 65.3022C3.40735 62.1396 2.95534 57.0322 2.72583 52.5336C2.61296 50.3212 2.55643 48.3186 2.52816 46.8689C2.51404 46.1446 2.50699 45.5597 2.50348 45.1573C2.50173 44.9562 2.50086 44.8007 2.50043 44.6963L2.50005 44.5788L2.50001 44.55L2.5 44.5434L2.5 44.5421V44.542V44.5419V44.5418L2.5 44.5406L2.50001 44.534L2.50005 44.5054L2.50043 44.3885C2.50086 44.2846 2.50173 44.1299 2.50348 43.9297C2.50699 43.5292 2.51403 42.9469 2.52816 42.2254C2.55642 40.7815 2.61295 38.7857 2.72582 36.5778C2.95513 32.0923 3.40677 26.9821 4.24849 23.7787C5.04552 20.8269 7.45314 18.4258 10.3257 17.6324C11.8147 17.2428 14.6353 16.9102 18.2349 16.6518C21.7758 16.3976 25.8715 16.227 29.7727 16.1129C33.67 15.9989 37.3535 15.9418 40.0638 15.9133C41.4185 15.899 42.529 15.8919 43.3001 15.8883C43.6856 15.8865 43.9862 15.8857 44.19 15.8852L44.4216 15.8848L44.4802 15.8848L44.4947 15.8848L44.4982 15.8848H44.499C44.4991 15.8848 44.4991 15.8848 44.4991 13.3848C44.4991 15.8848 44.4992 15.8848 44.4993 15.8848H44.5001L44.5035 15.8848L44.518 15.8848L44.5765 15.8848L44.808 15.8852C45.0118 15.8857 45.3123 15.8866 45.6978 15.8885C46.4687 15.8922 47.579 15.8996 48.9335 15.9144C51.6435 15.9441 55.3264 16.0034 59.223 16.1219C63.1237 16.2405 67.2179 16.4178 70.7569 16.6819C74.3672 16.9514 77.1856 17.2979 78.6624 17.7021L78.6722 17.7047C81.6242 18.4998 83.9578 20.8332 84.7522 23.785Z" fill="#E50046" stroke="white" stroke-width="5"/>
<path d="M35.6289 57.8844L58.7948 44.5418L35.6289 31.1992V57.8844Z" fill="white"/>
</svg>
